<svg xmlns="http://www.w3.org/2000/svg" viewBox="0 0 127.09 100.64"><defs><style>.cls-1{fill:#c1ab99;}.cls-2{fill:#f1f1f2;}.cls-3{fill:#d4d3d6;}.cls-4{fill:#c5223b;}.cls-5{fill:none;stroke:#c71739;stroke-miterlimit:10;stroke-width:0.37px;stroke-dasharray:1.5;}.cls-6{fill:#df8f4a;}.cls-7{fill:#f8ad6c;}.cls-8{fill:#23434a;}.cls-9{fill:#c71739;}</style></defs><title>404</title><g id="Layer_2" data-name="Layer 2"><g id="OBJECTS"><polygon class="cls-1" points="18.97 0 0 84.7 37.22 84.76 56.19 0.06 18.97 0"/><polygon class="cls-1" points="89.88 15.88 70.91 100.58 108.12 100.64 127.09 15.94 89.88 15.88"/><polygon class="cls-1" points="89.88 15.88 70.91 100.58 37.22 84.76 56.19 0.06 89.88 15.88"/><polygon class="cls-2" points="72.22 94.7 100.09 95.54 116.03 24.33 88.07 23.92 72.22 94.7"/><polygon class="cls-3" points="88.07 23.92 54.07 9.52 38.22 80.29 72.22 94.7 88.07 23.92"/><polygon class="cls-2" points="54.07 9.52 26.03 9.47 10.18 80.25 38.22 80.29 54.07 9.52"/><path class="cls-4" d="M97.84,15a8.61,8.61,0,0,0-10.28,6.52,8.5,8.5,0,0,0,.64,5.61l4.73,9.75,8.45-6.8a8.49,8.49,0,0,0,3-4.8A8.61,8.61,0,0,0,97.84,15Zm-2.67,11.9a3.69,3.69,0,1,1,4.41-2.8A3.69,3.69,0,0,1,95.17,26.86Z"/><polyline class="cls-5" points="10.18 80.25 42 63.42 71.56 61.05 89.49 52.23 92.93 36.84"/><rect class="cls-6" x="26.98" y="55.41" width="8.5" height="0.36" transform="translate(-28.92 76.76) rotate(-80.05)"/><path class="cls-7" d="M36.47,60.75,22.16,58.24s-.09,2.65,1,3.63,10.73,2.76,12.72,2.24,3.4-2.87,3.4-2.87Z"/><path class="cls-6" d="M23,61.76l.12.11a.1.1,0,0,0,.05,0l12.6,2.21h.07l.2-.06Z"/><path class="cls-6" d="M22.27,59.8s0,.08,0,.13L38.11,62.7l.11-.1Z"/><polygon class="cls-6" points="22.19 58.24 22.56 56.11 26.95 56.88 28.81 59.41 22.19 58.24"/><polygon class="cls-6" points="39.28 61.24 39.44 60.3 36.33 59.75 34.58 60.42 39.28 61.24"/><path class="cls-8" d="M26.21,61.47a.47.47,0,0,1-.54.38.47.47,0,0,1,.16-.93A.47.47,0,0,1,26.21,61.47Z"/><path class="cls-8" d="M28.71,61.9a.46.46,0,0,1-.54.38.45.45,0,0,1-.38-.54.47.47,0,0,1,.54-.38A.48.48,0,0,1,28.71,61.9Z"/><path class="cls-8" d="M31.2,62.34a.45.45,0,0,1-.54.38.47.47,0,0,1-.38-.54.46.46,0,0,1,.54-.38A.46.46,0,0,1,31.2,62.34Z"/><path class="cls-8" d="M33.7,62.78a.48.48,0,0,1-.54.38.46.46,0,0,1-.38-.54.45.45,0,0,1,.54-.38A.47.47,0,0,1,33.7,62.78Z"/><path class="cls-9" d="M37,62h0a.19.19,0,0,1-.11.11s0,0,0,0h0a.13.13,0,0,1-.07.06.11.11,0,0,1-.17-.12l.1-.55a.13.13,0,0,0,.09-.1.14.14,0,0,0-.11-.16.13.13,0,0,0-.15.11.13.13,0,0,0,0,.13l-.09.55a.12.12,0,0,1-.2.06.26.26,0,0,1,0-.09h0a0,0,0,0,0,0,0,.16.16,0,0,1-.07-.14,0,0,0,0,0,0,0,.3.3,0,0,0-.05.22,0,0,0,0,0,0,0h0a.49.49,0,0,0,.22.24l.07.06,0,0h0l.09,0a.44.44,0,0,0,.28-.15s0,0,0,0h0A.26.26,0,0,0,37,62Zm-.3-.63a0,0,0,0,1,0,.06.06.06,0,0,1-.06,0,.06.06,0,0,1,0-.07A0,0,0,0,1,36.74,61.4Z"/><path class="cls-6" d="M36.71,61.57a.49.49,0,0,0-.17,0s0,0,0,0v0s0,0,0,0l.16.05h.17a0,0,0,0,0,0,0v0s0-.05,0-.05A.55.55,0,0,0,36.71,61.57Z"/><path class="cls-9" d="M23.94,59.73h0a.26.26,0,0,1-.11.12s0,0,0,0h0a.23.23,0,0,1-.07.07.12.12,0,0,1-.17-.12l.1-.56a.12.12,0,0,0,.09-.1.13.13,0,1,0-.26,0,.12.12,0,0,0,.05.13l-.09.56a.12.12,0,0,1-.2,0,.22.22,0,0,1-.05-.08h0s0,0,0,0a.19.19,0,0,1-.06-.15s0,0,0,0a.23.23,0,0,0-.06.21,0,0,0,0,0,0,0h0a.41.41,0,0,0,.21.24l.07.06,0,0h0a.2.2,0,0,1,.08,0,.4.4,0,0,0,.28-.15h0v0h0A.32.32,0,0,0,23.94,59.73Zm-.3-.63a.08.08,0,0,1,.05.07.06.06,0,0,1-.07,0,0,0,0,0,1,0-.06A.06.06,0,0,1,23.64,59.1Z"/><path class="cls-6" d="M23.61,59.27h-.17a0,0,0,0,0,0,0v0a0,0,0,0,0,0,0,.43.43,0,0,0,.16,0,.5.5,0,0,0,.17,0,.05.05,0,0,0,.05,0v-.05a0,0,0,0,0,0,0Z"/><path class="cls-4" d="M36.3,52.33h.56l-1.72,1,1.29,1.49-1.12-.35A10,10,0,0,0,32,54h-.24l.43-2.45h0A10.72,10.72,0,0,0,36.3,52.33Z"/></g></g></svg>