<svg xmlns="http://www.w3.org/2000/svg" viewBox="0 0 61.13 67.97"><defs><style>.cls-1,.cls-2{fill:#a38069;}.cls-2{fill-rule:evenodd;}</style></defs><title>jalur_1</title><g id="Layer_2" data-name="Layer 2"><g id="Layer_1-2" data-name="Layer 1"><path class="cls-1" d="M36,44.59,34.64,45a17.09,17.09,0,0,1-.77-3.77c-.56-3.87-7-19.62-8.32-27.64-1-6.34-1.46-1.34-4.39.52-3.9,2.48-4.1,7.29-8.77,11.48-2.18,2,.14,4,3.5,5.2,7.3,2.68,7.37,6.27,17.13,13-4.54-2.06-24.55-13-28.41-15.14-.42-.23-.19-.63,0-.79,9.08-6,18.28-23.68,20.22-27.56.25-.49.55,0,.55,0Zm1.36,8.16c-3.64,3.64-8,7.88-11.37,11,6.47,0,12.28-.4,14.52-1.36,6-2.58,1.42,1.54-2.29,2.29-1.86.39-7.38.54-13.82.49-2.62,2.29-4.35,3.5-4.12,2.48A7.63,7.63,0,0,1,22,65.1c-4.69-.08-9.67-.26-14-.54-1.4.86-2.2,1.17-2,.58a2.55,2.55,0,0,1,.46-.69c-1.92-.14-3.66-.31-5.14-.5-2.23-.28-1.32-1.36.18-1.08.34.07,2.71.24,6.16.41a111,111,0,0,1,10.53-7.52c-4,.37-6.84.36-7.42-.23-2.32-2.31-2.32-4.35-2.32-4.35s30.16-3.33,40.67-11.52,9.72-11,11.53-8.7-2,12.54-5.87,16.38C53.2,48.94,45.71,51,37.35,52.75Zm-14.07,11c2.93-3,7.53-7,11.72-10.49-5.11,1-10.37,1.82-14.68,2.31-3.49,2.72-7.6,5.84-10.51,7.84C13.73,63.55,18.57,63.7,23.28,63.72Z"/><path class="cls-2" d="M30.79,38.28c-2.2-4.14-4.31-12-5.42-15.56S23.13,18,21.29,19.6s-1.12,2.87-3.91,3.9c-2.11.77,3.49,1.85,3.86,4s-.68,3.74,1.41,4.56C25.23,33.08,28,37.57,30.79,38.28Z"/></g></g></svg>