<svg xmlns="http://www.w3.org/2000/svg" viewBox="0 0 52.69 39.21"><defs><style>.cls-1{fill:#a38069;fill-rule:evenodd;}</style></defs><title>jejak</title><g id="Layer_2" data-name="Layer 2"><g id="Layer_1-2" data-name="Layer 1"><path class="cls-1" d="M35.26,28.38C43.5,27,45.64,15,38.71,9.27,34.07,5.45,25.76,7,26.86,15.19c.43,3.22,5.43,4.87,6.92,1.53.9-2,.08-3.12-1.89-3.28-1.79-.15-1.31-3.55,3-1.94,1.71.65,3.56,2.23,3.21,5.69S31.54,27.78,24,21.51c-11.44-9.46.54-28.65,12.28-18.75,3,2.53,6-5.8,12.37-.21,8,7-1.92,12,3.53,19.9C55.71,27.6,41.28,47.89,20.92,35,17.64,32.9,11,26.67,0,30.19,18,17.71,23.61,30.31,35.26,28.38Z"/></g></g></svg>
