<svg xmlns="http://www.w3.org/2000/svg" viewBox="0 0 41.56 56.24"><defs><style>.cls-1{fill:#a38069;}</style></defs><title>masa-depan_1</title><g id="Layer_2" data-name="Layer 2"><g id="Layer_1-2" data-name="Layer 1"><path class="cls-1" d="M40.91,27.82c.64-7.25,2.75-24-6.93-27.4C23.59-3.23,5.54,17.89,1.92,27.43-4.25,43.66,5,60.48,21.85,55.28,32,52.15,40,38.45,40.91,27.82Zm-28,12.07c4.51-2.8,11-2.67,16-4.44C27.51,41,23.86,48.69,17.36,49,12.48,49.29,6.6,43.79,12.87,39.89ZM34.72,9.83c1.49,6.56,4.65,12.77-1,18C33.68,21.82,31.58,15,34.72,9.83ZM24.36,19.05,29,15.85c.46,12-6,15.48-17.06,18.57C14.67,27.94,19.56,23.92,24.36,19.05ZM29.25,7C23.41,14.13,16.12,18.38,9.79,24.8,12.91,15.41,21.34,5.48,31.62,3.59,30.91,4.17,29.76,6.37,29.25,7Z"/></g></g></svg>