<svg xmlns="http://www.w3.org/2000/svg" viewBox="0 0 200 200"><defs><style>.cls-1{fill:#9d7e59;}.cls-2{fill:#f1f2f2;}</style></defs><title>icon-linkedin</title><g id="Layer_2" data-name="Layer 2"><g id="Layer_1-2" data-name="Layer 1"><circle class="cls-1" cx="100" cy="100" r="100"/><path class="cls-2" d="M159.75,108.05v41.22h-23.9V110.81c0-9.66-3.45-16.25-12.11-16.25-6.6,0-10.53,4.44-12.26,8.74a16.31,16.31,0,0,0-.79,5.82v40.15H86.78s.32-65.14,0-71.89h23.91V87.57c0,.08-.12.16-.16.24h.16v-.24c3.18-4.89,8.84-11.88,21.54-11.88,15.73,0,27.52,10.28,27.52,32.36Zm-98-65.32c-8.18,0-13.53,5.37-13.53,12.42s5.2,12.42,13.21,12.42h.16c8.34,0,13.52-5.52,13.52-12.42C75,48.1,70,42.73,61.78,42.73ZM49.67,149.27h23.9V77.38H49.67Z"/></g></g></svg>