<svg xmlns="http://www.w3.org/2000/svg" viewBox="0 0 200 200"><defs><style>.cls-1{fill:#9d7e59;}.cls-2{fill:#f1f2f2;}</style></defs><title>icon-twitter</title><g id="Layer_2" data-name="Layer 2"><g id="Layer_1-2" data-name="Layer 1"><circle class="cls-1" cx="100" cy="100" r="100"/><path class="cls-2" d="M161.25,71.87a47.8,47.8,0,0,1-13.73,3.76A24,24,0,0,0,158,62.41a48.08,48.08,0,0,1-15.18,5.79A23.93,23.93,0,0,0,102.12,90,67.84,67.84,0,0,1,52.86,65a23.92,23.92,0,0,0,7.39,31.91,23.63,23.63,0,0,1-10.82-3c0,.1,0,.2,0,.3A23.92,23.92,0,0,0,68.6,117.69a23.88,23.88,0,0,1-10.79.41,23.91,23.91,0,0,0,22.32,16.6,47.89,47.89,0,0,1-29.68,10.24,48.61,48.61,0,0,1-5.7-.34,67.55,67.55,0,0,0,36.63,10.74c44,0,68-36.42,68-68,0-1,0-2.07-.07-3.09a48.38,48.38,0,0,0,11.93-12.37Z"/></g></g></svg>