<svg xmlns="http://www.w3.org/2000/svg" viewBox="0 0 200 199.9"><defs><style>.cls-1{fill:#9d7e59;}.cls-2{fill:#fafafa;}</style></defs><title>icon-whatsapp</title><g id="Layer_2" data-name="Layer 2"><g id="Layer_1-2" data-name="Layer 1"><path class="cls-1" d="M100,0A99.95,99.95,0,0,0,15.83,153.88L.28,194.22a4.16,4.16,0,0,0,2.39,5.38,4.07,4.07,0,0,0,1.5.28,4.16,4.16,0,0,0,1.4-.24l41.64-14.87A99.94,99.94,0,1,0,100,0Z"/><path class="cls-2" d="M147.59,117s-10.2-5-16.59-8.33c-7.23-3.72-15.72,3.25-19.72,7.22A50.15,50.15,0,0,1,94.57,105.3,50,50,0,0,1,84,88.58c4-4,10.91-12.49,7.21-19.72-3.29-6.4-8.33-16.59-8.33-16.6A4.16,4.16,0,0,0,79.13,50H70.8A25.1,25.1,0,0,0,50,75c0,13.07,15.65,38.19,26.2,48.75s35.67,26.2,48.75,26.2a25.1,25.1,0,0,0,25-20.82v-8.33A4.16,4.16,0,0,0,147.59,117Z"/></g></g></svg>