<svg xmlns="http://www.w3.org/2000/svg" viewBox="0 0 200 200"><defs><style>.cls-1{fill:#9d7e59;}</style></defs><title>icon-instagram</title><g id="Layer_2" data-name="Layer 2"><g id="Layer_1-2" data-name="Layer 1"><path class="cls-1" d="M129.8,53.21H70.2A17.28,17.28,0,0,0,52.94,70.47v59.6A17.28,17.28,0,0,0,70.2,147.33h59.6a17.28,17.28,0,0,0,17.26-17.26V70.47A17.28,17.28,0,0,0,129.8,53.21Zm-29.8,78a31,31,0,1,1,31-31A31,31,0,0,1,100,131.26Zm32-55.57a7.33,7.33,0,1,1,7.33-7.33A7.34,7.34,0,0,1,132,75.69Z"/><path class="cls-1" d="M100,82.38a17.89,17.89,0,1,0,17.89,17.89A17.92,17.92,0,0,0,100,82.38Z"/><path class="cls-1" d="M100,0A100,100,0,1,0,200,100,100,100,0,0,0,100,0Zm60.15,130.07a30.38,30.38,0,0,1-30.35,30.35H70.2a30.38,30.38,0,0,1-30.35-30.35V70.47A30.38,30.38,0,0,1,70.2,40.12h59.6a30.38,30.38,0,0,1,30.35,30.35Z"/></g></g></svg>