<svg xmlns="http://www.w3.org/2000/svg" viewBox="0 0 200 200"><defs><style>.cls-1{fill:#9d7e59;}.cls-2{opacity:0.11;}.cls-3{fill:#fcfcfc;}</style></defs><title>icon-line</title><g id="Layer_2" data-name="Layer 2"><g id="Layer_1-2" data-name="Layer 1"><circle class="cls-1" cx="100" cy="100" r="100"/><path class="cls-2" d="M100,0A100.22,100.22,0,0,0,87,.85a100,100,0,0,1,0,198.3A100,100,0,1,0,100,0Z"/><path class="cls-3" d="M99.78,153.14a3.49,3.49,0,0,0-3.37-3.48C57.19,148.15,25.87,122,25.87,90,25.87,57,59.12,30.22,100,30.22S174.13,57,174.13,90v4.1c0,17.52-8.31,38.75-21.7,55.41-14,17.43-31.38,27.68-48.93,28.87h0a3.48,3.48,0,0,1-3.72-3.47V153.14Z"/><path class="cls-1" d="M69.57,112h-13a3.26,3.26,0,0,1-3.26-3.26V82.61a3.26,3.26,0,1,1,6.52,0v22.82h9.79a3.27,3.27,0,0,1,0,6.53Z"/><path class="cls-1" d="M82.61,112a3.26,3.26,0,0,1-3.26-3.26V82.61a3.26,3.26,0,0,1,6.52,0V108.7A3.26,3.26,0,0,1,82.61,112Z"/><path class="cls-1" d="M117.39,112a3.24,3.24,0,0,1-2.71-1.46L103.26,93.38V108.7a3.26,3.26,0,1,1-6.52,0V82.61a3.26,3.26,0,0,1,6-1.81l11.42,17.13V82.61a3.26,3.26,0,0,1,6.52,0V108.7a3.27,3.27,0,0,1-2.31,3.12A3.47,3.47,0,0,1,117.39,112Z"/><path class="cls-1" d="M147.83,98.91a3.26,3.26,0,0,0,0-6.52H138V85.87h9.79a3.26,3.26,0,0,0,0-6.52H134.78a3.26,3.26,0,0,0-3.26,3.26V108.7a3.26,3.26,0,0,0,3.26,3.26h13.05a3.27,3.27,0,0,0,0-6.53H138V98.91Z"/></g></g></svg>