<svg width="131" height="183" viewBox="0 0 131 183" fill="none" xmlns="http://www.w3.org/2000/svg">
<path d="M36.6272 27.6447C36.4978 26.6713 35.5916 26.0223 34.6207 26.1521C33.6497 26.2819 33.0025 27.1904 33.1319 28.1638C33.2614 29.1372 34.1676 29.7862 35.1385 29.6564C36.1094 29.5266 36.7567 28.6181 36.6272 27.6447Z" fill="#96613E"/>
<path d="M84.1371 39.9744C84.7197 39.1957 84.5255 38.0925 83.7488 37.5734C82.972 36.9893 81.8717 37.184 81.3539 37.9627C80.7713 38.7414 80.9655 39.8446 81.7422 40.4287C82.4542 40.9478 83.5546 40.7531 84.1371 39.9744Z" fill="#96613E"/>
<path d="M53.3268 158.47C53.4562 159.444 54.3624 160.093 55.3333 159.963C56.3042 159.833 56.9515 158.924 56.822 157.951C56.6926 156.978 55.7864 156.329 54.8155 156.459C53.8446 156.653 53.1973 157.562 53.3268 158.47Z" fill="#96613E"/>
<path d="M96.6297 131.02C96.0472 131.799 96.2414 132.902 97.0181 133.486C97.7948 134.07 98.8952 133.876 99.4777 133.097C100.06 132.318 99.8661 131.215 99.0894 130.631C98.3127 130.047 97.2123 130.241 96.6297 131.02Z" fill="#96613E"/>
<path d="M108.539 84.6862C108.669 85.6596 109.575 86.3085 110.481 86.1788C111.452 86.049 112.099 85.1405 111.97 84.2319C111.84 83.2585 110.934 82.6096 110.028 82.7394C109.057 82.8043 108.41 83.7128 108.539 84.6862Z" fill="#96613E"/>
<path d="M5.81723 146.205C5.23469 146.984 5.42887 148.087 6.2056 148.606C6.98232 149.19 8.08269 148.996 8.66523 148.217C9.24778 147.438 9.0536 146.335 8.27687 145.816C7.43542 145.232 6.33505 145.427 5.81723 146.205Z" fill="#96613E"/>
<path d="M90.9985 59.5723C88.4741 56.0681 85.6261 52.9532 82.4545 50.1628C82.3897 50.033 80.1243 45.3606 81.0305 42.2457C81.0952 41.9862 81.0305 41.7915 80.7716 41.6617C80.5774 41.5319 80.3185 41.5319 80.1243 41.7266C77.7941 43.6734 72.2923 42.9596 72.2276 42.8947C72.1628 42.8947 72.1628 42.9596 72.0981 42.9596C69.5737 41.5968 66.9846 40.4287 64.2661 39.4553C64.2661 39.3904 64.3308 39.3255 64.2661 39.2606L60.965 29.4617C60.9003 29.267 60.7708 29.1372 60.5767 29.0723C60.3825 29.0074 60.1883 29.0723 60.0588 29.2021L52.8741 36.4053C52.8741 36.4702 52.8741 36.4702 52.8094 36.5351C49.3141 36.016 45.8188 35.8862 42.3236 36.016C41.9999 35.8862 37.3396 34.134 35.8508 31.3436C35.7214 31.1489 35.5272 31.0192 35.2683 31.084C35.0094 31.1489 34.8799 31.3436 34.8152 31.5383C34.4916 34.5234 29.9606 37.8979 29.9606 37.8979C29.9606 37.8979 29.9606 37.8979 29.9606 37.9628C26.4006 38.9362 22.9054 40.2989 19.4748 41.9862L4.71701 25.633C4.52283 25.4383 4.26392 25.3734 4.00501 25.5032C3.81083 25.633 3.68137 25.8926 3.7461 26.1521L11.5134 46.9181C8.40647 49.1894 5.62319 51.6553 3.09883 54.3809C3.09883 54.3809 3.09883 54.3809 3.0341 54.3809C2.96938 54.3809 -2.01463 56.8468 -4.86263 55.8085C-5.05681 55.7436 -5.31572 55.8085 -5.5099 56.0032C-5.63936 56.1979 -5.63936 56.4575 -5.5099 56.6521C-3.69754 59.2479 -4.28008 64.2447 -4.34481 64.5692C-6.09245 67.6192 -7.51645 70.7989 -8.68154 74.0436C-8.68154 74.0436 -8.68154 74.0436 -8.74627 74.0436L-18.4554 77.0936C-18.6495 77.1585 -18.779 77.2883 -18.8437 77.483C-18.9084 77.6777 -18.8437 77.8723 -18.7143 78.0021L-11.5943 85.4649H-11.5295C-11.9179 88.3202 -12.1121 91.1755 -12.0474 94.0958C-12.1121 94.1607 -12.1768 94.1607 -12.2415 94.2255C-12.2415 94.2904 -14.1834 99.5468 -16.9666 100.715C-17.1608 100.78 -17.2903 101.039 -17.2903 101.299C-17.2903 101.559 -17.0961 101.753 -16.8372 101.753C-13.6655 102.402 -10.4939 106.62 -10.4939 106.685H-10.4292C-9.45827 110.709 -7.96954 114.667 -6.09245 118.561L-22.5332 133.421C-22.7274 133.616 -22.7921 133.876 -22.6626 134.135C-22.5332 134.33 -22.2743 134.46 -22.0154 134.395L-1.30263 126.607C1.22174 130.112 4.06973 133.162 7.17664 135.952V136.017C7.17664 136.082 9.50683 140.819 8.60065 143.934C8.53592 144.194 8.60064 144.388 8.79483 144.518C8.98901 144.648 9.24792 144.648 9.4421 144.453C11.7723 142.506 17.2741 143.22 17.3388 143.285C17.4036 143.285 17.533 143.285 17.5977 143.22C20.0574 144.583 22.6465 145.686 25.2356 146.66L28.4072 156.134C28.4719 156.329 28.6014 156.459 28.7956 156.523C28.925 156.588 29.0545 156.523 29.1839 156.459C29.2486 156.459 29.2486 156.394 29.3134 156.394L36.1745 149.515C39.7992 150.099 43.4886 150.294 47.2428 150.099C47.5665 150.229 52.2268 151.981 53.6508 154.771C53.7803 154.966 53.9745 155.096 54.2334 155.031C54.2981 155.031 54.3628 154.966 54.4276 154.966C54.557 154.901 54.6865 154.706 54.6865 154.577C55.0101 151.592 59.541 148.217 59.541 148.217C63.101 147.244 66.5963 145.881 70.0268 144.194L84.8494 160.677C85.0436 160.871 85.3025 160.936 85.5614 160.806C85.7556 160.677 85.885 160.417 85.8203 160.157L78.053 139.392C81.1599 137.12 83.9432 134.654 86.4676 131.929C86.5323 131.929 91.5163 129.463 94.3643 130.501C94.4937 130.566 94.6879 130.566 94.8174 130.436C94.8821 130.371 94.9468 130.371 94.9468 130.306C95.0763 130.112 95.0763 129.852 94.9468 129.657C93.1992 127.062 93.717 122.13 93.7817 121.805C95.6588 118.561 97.1476 115.186 98.3774 111.682L107.698 108.762C107.763 108.762 107.763 108.762 107.828 108.697C107.957 108.632 108.022 108.502 108.086 108.372C108.151 108.178 108.086 107.983 107.957 107.853L100.966 100.585C101.29 97.8596 101.484 95.1341 101.42 92.3436C101.42 92.2787 101.484 92.2787 101.484 92.2138C101.484 92.149 103.426 86.8926 106.209 85.7245C106.404 85.6596 106.533 85.4 106.533 85.1404C106.533 84.8809 106.339 84.6862 106.08 84.6862C102.973 84.0372 99.8661 79.9489 99.7366 79.7543C98.7657 75.666 97.277 71.7075 95.3352 67.8138L111.776 52.9532C111.97 52.7585 112.035 52.4989 111.905 52.2394C111.776 52.0447 111.517 51.9149 111.258 51.9798L90.9985 59.5723ZM15.8501 142.052C14.2319 141.987 11.9017 142.117 10.1541 142.961C10.2836 141.079 9.76574 139.002 9.24792 137.51C11.3192 139.132 13.4552 140.624 15.6559 141.922L15.8501 142.052ZM-11.7884 96.4319L-11.7237 96.6915C-11.5943 99.2872 -11.2706 101.818 -10.7528 104.414C-11.8532 103.246 -13.4066 101.818 -15.1543 101.039C-13.6655 99.9362 -12.5004 97.9245 -11.7884 96.4319ZM-17.1608 77.8723L-8.61681 75.1468L-0.137535 82.2851L-17.1608 77.8723ZM60.253 30.6947L56.3046 47.8915L53.9745 37.0543L60.253 30.6947ZM90.3512 69.3713C93.1992 66.9053 96.1119 64.5043 99.0247 62.1681C96.3061 64.7638 93.5228 67.3596 90.7396 69.8904C89.3803 71.1883 87.9563 72.4213 86.5323 73.6543L82.325 77.4181L78.053 81.117C76.629 82.35 75.205 83.583 73.781 84.816C70.933 87.2819 68.0203 89.683 65.1076 92.0192C67.8261 89.4234 70.6094 86.8277 73.3927 84.2968C74.7519 82.9989 76.1759 81.766 77.5999 80.533L81.8072 76.7692L86.0792 73.0702C87.5032 71.8372 88.8625 70.6043 90.3512 69.3713ZM76.1112 138.288C75.3345 136.342 74.5577 134.395 73.781 132.448L71.5156 126.607L69.3148 120.767C68.6028 118.82 67.8261 116.873 67.1141 114.927C65.6901 111.033 64.2661 107.074 62.9068 103.116C64.525 106.945 66.1432 110.838 67.6966 114.667C68.4734 116.614 69.2501 118.561 70.0268 120.507L72.2923 126.348L74.493 132.188C75.205 134.135 75.9818 136.082 76.6937 138.029C78.1177 141.922 79.5417 145.881 80.901 149.839C79.2828 146.011 77.6646 142.117 76.1112 138.288ZM4.06974 121.805L9.83047 119.404L15.6559 117.068C17.5977 116.289 19.5396 115.511 21.4814 114.732C25.365 113.174 29.2486 111.747 33.197 110.254C29.3781 112.006 25.5592 113.694 21.7403 115.316C19.7985 116.16 17.9214 116.938 15.9796 117.782L10.2188 120.183L4.39337 122.519C2.45156 123.298 0.509737 124.077 -1.43208 124.855C-5.31572 126.413 -9.19936 127.84 -13.1477 129.333C-9.32881 127.581 -5.5099 125.894 -1.69099 124.271C0.250828 123.428 2.19265 122.649 4.06974 121.805ZM-8.16372 83.5181C-7.45172 83.3883 -6.67499 83.2585 -5.96299 83.1287C-5.25099 82.999 -4.47426 82.9341 -3.76226 82.8043L-2.6619 82.6745C-2.27354 82.6096 -1.9499 82.6096 -1.56154 82.5447C-1.9499 82.6096 -2.27354 82.6745 -2.6619 82.8043L-3.76226 82.9989C-4.47426 83.1287 -5.25099 83.2585 -5.96299 83.3883C-6.67499 83.5181 -7.45172 83.583 -8.16372 83.7128C-8.87572 83.7777 -9.65245 83.9075 -10.3644 83.9723C-9.65245 83.8426 -8.87572 83.7128 -8.16372 83.5181ZM22.1934 48.8L19.1512 45.1011C18.1803 43.8681 17.1446 42.6351 16.1737 41.4021C14.1672 38.9362 12.2254 36.4053 10.3483 33.8745C12.4843 36.2106 14.6203 38.6117 16.6916 41.0128C17.7272 42.1809 18.7628 43.4138 19.7985 44.6468L22.8406 48.2809L25.8828 51.9798C26.8537 53.2128 27.8894 54.4458 28.8603 55.6787C30.8668 58.1447 32.8086 60.6755 34.6857 63.2064C32.5497 60.8702 30.4137 58.4692 28.3425 56.0681C27.3068 54.9 26.2712 53.667 25.2356 52.4341L22.1934 48.8ZM61.1592 41.2723C61.6123 40.6883 62.0654 40.1043 62.5832 39.5202C62.1948 40.1692 61.8065 40.7532 61.3534 41.4021C60.965 42.0511 60.5119 42.6351 60.0588 43.2192C59.6057 43.8032 59.1526 44.4521 58.6996 45.0362L57.9876 45.9447C57.7286 46.2043 57.5345 46.5287 57.2756 46.7883C57.4697 46.4638 57.6639 46.1394 57.8581 45.8149L58.5054 44.9064C58.8937 44.2574 59.3468 43.6734 59.7999 43.0894C60.253 42.5053 60.7061 41.9213 61.1592 41.2723ZM91.1926 87.4117L72.7454 91.4351L91.2574 89.2936C91.581 93.5766 91.3868 97.8596 90.5454 102.013L88.5388 102.402C88.3447 102.467 88.1505 102.597 88.0857 102.791C88.021 102.986 88.0857 103.246 88.2799 103.376L89.9628 104.803C89.0567 108.437 87.5679 111.877 85.7556 115.121L67.6966 104.933L84.8494 116.744C82.1956 121.286 78.765 125.374 74.5577 128.879L64.525 101.883L85.4319 102.856C85.5614 102.856 85.6261 102.856 85.7556 102.791C85.885 102.727 85.9497 102.597 86.0145 102.467C86.0792 102.207 85.9497 101.948 85.6908 101.818L67.0494 93.7064L87.8268 74.9521C89.445 78.9755 90.6748 83.1936 91.1926 87.4117ZM45.7541 139.586C42.0647 139.651 38.3752 139.392 34.8152 138.548L34.2974 136.277C34.2326 136.082 34.1032 135.887 33.909 135.887C33.7148 135.822 33.4559 135.887 33.3265 136.082L31.9672 137.769C27.8894 136.601 23.941 134.784 20.3163 132.513L30.7374 117.003L18.6981 131.604C15.1381 129.203 12.0312 126.218 9.18319 122.779L35.8508 112.785L34.4268 132.967C34.4268 133.227 34.5563 133.486 34.8152 133.551C34.9446 133.616 35.1388 133.551 35.2683 133.486C35.333 133.421 35.4625 133.356 35.4625 133.227L43.9417 114.797L63.0363 135.952C57.9876 138.094 52.8094 139.262 47.5665 139.521L44.9774 118.82L45.7541 139.586ZM-2.98554 114.862C-4.86263 110.189 -6.28663 105.387 -6.73972 100.39C-5.83354 105.452 -3.95645 110.254 -1.62626 114.732L-2.59718 115.576C-2.72663 115.381 -2.85608 115.121 -2.98554 114.862ZM-5.05681 102.207C-4.15063 106.296 -2.59717 110.189 -0.655355 113.888L-1.56154 114.732C-3.24445 110.709 -4.53899 106.49 -5.05681 102.207ZM-3.30917 104.024C-2.46772 107.139 -1.17317 110.124 0.315554 112.98L-0.525898 113.759C-1.75572 110.579 -2.79136 107.334 -3.30917 104.024ZM-1.56154 105.842C-0.784811 108.048 0.1861 110.124 1.22174 112.201L0.509737 112.85C-0.396444 110.579 -1.10845 108.243 -1.56154 105.842ZM-1.17317 98.7032L17.2741 94.6798L-1.2379 96.8213C-1.56154 92.3436 -1.36735 87.866 -0.461172 83.5181L1.28646 83.1936C1.35119 83.1936 1.41592 83.1287 1.48065 83.1287C1.6101 83.0638 1.67483 82.9341 1.73956 82.8043C1.80428 82.6096 1.73956 82.35 1.54537 82.2202L0.121374 81.0521C1.02756 77.5479 2.45155 74.2383 4.19919 70.9936L22.2581 81.1819L5.10537 69.3713C7.75919 64.8287 11.1897 60.7404 15.397 57.2362L25.4945 84.2968L5.29956 83.3883C5.04065 83.3883 4.78174 83.583 4.71701 83.8426C4.65228 84.1021 4.78174 84.3617 5.04065 84.4915L23.1643 92.3436L2.19265 111.357C0.509737 107.139 -0.655352 102.986 -1.17317 98.7032ZM5.68792 60.9351C4.78174 62.1032 3.94028 63.3362 3.16356 64.5043C2.3221 65.7372 1.54537 66.9702 0.833374 68.2681C0.0566463 69.566 -0.655354 70.7989 -1.43208 72.0968C-0.849535 70.7341 -0.266989 69.3713 0.445011 68.0734C1.15701 66.7755 1.86901 65.4777 2.71047 64.2447C3.55192 63.0117 4.39337 61.8436 5.36428 60.6755C6.33519 59.5723 7.37083 58.4692 8.47119 57.4958C7.50028 58.6638 6.52938 59.767 5.68792 60.9351ZM7.62974 60.7404C7.11192 61.584 6.52938 62.3628 5.94683 63.2064C5.36428 64.05 4.84646 64.8287 4.26392 65.6723C3.68137 66.516 3.16355 67.2947 2.64573 68.1383C2.12792 68.9819 1.54537 69.8255 1.02755 70.6043C1.41592 69.6958 1.80428 68.7872 2.3221 67.8787C2.77519 66.9702 3.29301 66.1266 3.87555 65.283C4.4581 64.4394 5.04065 63.6606 5.62319 62.8819C6.27047 62.1681 6.91774 61.3894 7.62974 60.7404ZM9.18319 54.2511C7.88865 55.7436 6.5941 57.1713 5.36428 58.7287C4.13446 60.2862 2.96937 61.8436 1.93373 63.466C0.833372 65.0883 -0.137535 66.7755 -1.10844 68.4628C-2.07935 70.15 -2.98554 71.9021 -3.95645 73.6543C-3.17972 71.8372 -2.40299 70.0202 -1.49681 68.2681C-0.590626 66.516 0.380283 64.8287 1.48065 63.1415C2.58101 61.5192 3.7461 59.8968 5.04065 58.4043C6.33519 56.9766 7.69447 55.5489 9.18319 54.2511ZM27.3068 91.2404C27.2421 91.6298 27.1774 91.9543 27.1774 92.2787L12.0312 86.049L27.3068 91.2404ZM27.6305 88.9043L8.34174 84.5564L28.7956 85.5298C28.3425 86.633 27.8894 87.7362 27.6305 88.9043ZM36.3039 78.716C40.2523 76.3149 44.8479 75.7309 48.9905 76.7692C48.7316 76.7043 48.4726 76.7043 48.2137 76.6394C47.8901 76.6394 47.5665 76.5745 47.2428 76.5745C46.9192 76.5745 46.5956 76.5745 46.2719 76.5745C44.9774 76.6394 43.7476 76.8341 42.5825 77.2234C43.2297 77.2234 43.8123 77.1585 44.3948 77.2234H44.8479C44.9774 77.2234 45.1716 77.2234 45.301 77.2883C45.6246 77.3532 45.8836 77.3532 46.2072 77.3532C47.437 77.483 48.6021 77.8723 49.7025 78.1968C49.9614 78.3266 50.285 78.3915 50.5439 78.5213L50.9323 78.716C50.5439 78.5862 50.0908 78.3915 49.7025 78.3266L49.2494 78.1968L48.7963 78.1319C48.4726 78.067 48.2137 78.0021 47.8901 78.0021L46.9839 77.8723H46.0777C44.9127 77.8723 43.6828 78.0021 42.5825 78.2617C43.7476 78.1968 44.9127 78.2617 46.0777 78.3915C47.2428 78.5213 48.3432 78.8458 49.3788 79.2351C49.6377 79.3649 49.8967 79.4298 50.1556 79.5596L50.9323 79.8841C50.4145 79.6894 49.8966 79.3649 49.3141 79.2351C47.1134 78.6511 44.7832 78.6511 42.6472 79.2351C43.7476 79.1702 44.8479 79.1702 45.9483 79.3649C47.0487 79.4947 48.0843 79.8192 49.0552 80.1436C49.5083 80.2734 49.9614 80.533 50.3497 80.7277C49.8966 80.533 49.4436 80.3383 48.9905 80.2085C46.9192 79.6894 44.7185 79.6894 42.6472 80.2734C44.7185 80.1436 46.7897 80.4032 48.6668 81.117C48.861 81.1819 49.0552 81.3117 49.2494 81.4415C49.0552 81.3766 48.7963 81.2468 48.6021 81.1819C46.6603 80.6628 44.5243 80.6628 42.6472 81.3117C44.0712 81.2468 45.4305 81.5713 46.7897 81.8958C44.1359 81.4415 41.4174 81.766 38.9577 83.2585C33.5206 86.5681 31.773 93.7064 35.0741 99.1575C36.5628 101.623 38.893 103.181 41.4174 104.024C40.3817 103.765 39.2814 103.635 38.2457 103.181C39.7345 104.479 41.6116 105.322 43.6181 105.582C41.8057 105.517 40.0581 105.128 38.3105 104.349C39.9934 105.582 42.0646 106.361 44.2006 106.62C44.5243 106.685 44.9126 106.62 45.2363 106.62C45.0421 106.62 44.9127 106.685 44.7832 106.685C42.6472 106.815 40.4465 106.426 38.4399 105.582C40.317 106.815 42.5177 107.529 44.7832 107.659C45.1716 107.659 45.5599 107.594 45.9483 107.594C45.7541 107.594 45.5599 107.723 45.3657 107.723C43.1003 107.918 40.7701 107.594 38.5694 106.75C40.5759 107.918 42.9708 108.567 45.3657 108.632C45.6246 108.632 45.8836 108.567 46.1425 108.567C46.013 108.567 45.9483 108.632 45.8188 108.632L44.9126 108.697C44.589 108.697 44.3301 108.697 44.0065 108.697H43.1003L42.1941 108.632L41.2879 108.502C40.9643 108.437 40.7054 108.372 40.3817 108.372L39.4756 108.178C39.1519 108.113 38.893 108.048 38.5694 107.918C39.5403 108.697 40.7054 109.216 41.9352 109.605C37.3396 108.827 33.0676 106.166 30.4137 101.818C25.8828 93.9011 28.4072 83.5181 36.3039 78.716ZM35.7861 130.047L37.2748 109.216C38.4399 109.8 39.6697 110.254 40.9643 110.514L35.8508 129.917L35.7861 130.047ZM39.605 120.832C40.3817 118.561 41.0937 116.289 41.8705 114.018L42.9708 110.709C43.3592 110.773 43.8123 110.838 44.2006 110.903C44.2006 110.968 44.1359 111.033 44.1359 111.098L42.6472 114.343C41.6763 116.549 40.6406 118.69 39.605 120.832ZM48.4079 82.0255C49.3788 82.35 50.285 82.8692 51.1912 83.4532C50.1556 82.8043 49.1199 82.2851 47.9548 81.9607C48.0843 82.0255 48.2785 81.9607 48.4079 82.0255ZM55.269 88.1904L55.3985 88.5149L55.6574 89.1638C55.7221 89.3585 55.7868 89.6181 55.8516 89.8128C55.8516 89.8777 55.8516 89.9426 55.9163 90.0075C55.7221 89.2936 55.5279 88.6447 55.2043 87.9958L55.269 88.1904ZM56.3694 93.2521V93.5766L56.3046 93.9011V94.2255C56.3694 93.7713 56.3694 93.2521 56.3694 92.7979V93.2521ZM55.1396 98.1192C55.2043 97.9894 55.269 97.8596 55.3337 97.6649C55.269 97.8596 55.2043 97.9894 55.1396 98.1192ZM51.709 102.272C51.9032 102.143 52.0326 101.948 52.1621 101.818C52.0326 102.013 51.9032 102.143 51.709 102.272ZM49.3788 103.7C48.861 103.895 48.2785 104.024 47.7606 104.154C48.4726 103.96 49.1846 103.7 49.8966 103.376C49.7025 103.44 49.573 103.57 49.3788 103.7ZM65.5606 100.455L62.0006 100.326C61.8065 100.326 61.5476 100.261 61.3534 100.261C61.5476 99.8713 61.6123 99.4819 61.7417 99.0926C61.8712 99.0926 62.0006 99.0926 62.0654 99.1575L65.6254 99.6766C67.9556 100.066 70.3505 100.39 72.6806 100.78C70.2857 100.65 67.9556 100.52 65.5606 100.455ZM53.133 85.0107C53.3919 85.3351 53.5861 85.6596 53.845 85.9841C53.3919 85.4649 52.9388 84.9458 52.4857 84.4915C52.6799 84.6862 52.9388 84.816 53.133 85.0107ZM53.9097 87.6713C56.8872 92.6032 55.3337 99.0277 50.4145 102.078C47.6959 103.765 44.5243 103.895 41.741 102.921C42.6472 103.181 43.6181 103.376 44.589 103.311C45.8188 103.246 46.9839 102.856 48.0843 102.272C46.5308 102.532 45.1068 102.402 43.6828 102.143C44.0065 102.143 44.3301 102.272 44.6537 102.272C45.7541 102.207 46.8545 101.883 47.7606 101.299C46.4014 101.559 45.1068 101.364 43.8123 101.104C44.1359 101.104 44.3948 101.234 44.7185 101.234C45.6894 101.169 46.6603 100.845 47.437 100.326C46.2072 100.52 45.1068 100.326 44.0065 100.066C44.2654 100.066 44.5243 100.196 44.7832 100.131C45.6246 100.066 46.4661 99.7415 47.1781 99.2872C46.4661 99.3521 45.8836 99.0277 45.1716 98.9628C45.7541 98.833 46.4014 98.7032 46.8545 98.3138C45.4305 98.3787 44.2006 98.1192 43.165 97.5351C43.0356 97.4702 43.0356 97.3404 42.9708 97.2755C43.0356 97.3404 43.0356 97.4053 43.165 97.4053C44.589 98.0543 46.2072 97.9245 47.5665 97.1458C49.7025 95.8479 50.4792 93.1224 49.3788 90.916C49.3141 90.7862 49.2494 90.6564 49.1846 90.5915C47.8254 88.3202 44.9126 87.6064 42.6472 88.9692C41.5468 89.6181 40.8348 90.6564 40.5112 91.8245C40.5112 91.7596 40.4465 91.6947 40.5112 91.6298C40.7054 90.4617 41.2879 89.2936 42.2588 88.2553C41.5468 88.45 40.9643 88.8394 40.3817 89.3585C40.2523 89.4883 40.1876 89.683 40.1228 89.7479C40.2523 89.4234 40.3817 89.0989 40.5759 88.7745C40.8348 88.3851 41.0937 88.0607 41.4174 87.6713C41.2879 87.6713 41.1585 87.6064 41.0937 87.6713C40.6406 87.866 40.1876 88.1904 39.7992 88.5149C39.605 88.6447 39.4756 88.8394 39.3461 89.0341C39.4756 88.8394 39.4756 88.5798 39.605 88.3851C39.8639 87.9309 40.1876 87.5415 40.5759 87.1521C40.5759 87.0224 40.6406 86.8926 40.7054 86.8277C40.1876 87.0872 39.6697 87.4117 39.2166 87.8011C38.9577 88.0607 38.6988 88.2553 38.4399 88.5798C38.5046 88.45 38.5694 88.2553 38.6341 88.0606C38.9577 87.5415 39.2814 87.0872 39.7345 86.633C39.9286 86.3734 40.1228 86.1787 40.317 85.9192C39.7345 86.1787 39.1519 86.5032 38.6341 86.9575C38.3105 87.217 37.9868 87.5415 37.7279 87.8011C37.6632 87.866 37.5985 87.9958 37.5337 88.1255C37.5985 87.9309 37.6632 87.8011 37.7279 87.6064C38.3105 86.633 39.0872 85.7894 39.9934 85.0107C38.893 85.4649 37.8574 86.1787 37.0159 87.0872C36.3686 87.8011 35.9156 88.7096 35.4625 89.6181C36.2392 87.4117 37.5985 85.4 39.7345 84.1021C44.4596 81.117 50.9323 82.7394 53.9097 87.6713ZM43.1003 89.9426C44.7832 88.9043 46.9192 89.4883 48.0196 91.1106L47.6959 91.0458C48.0196 91.7596 47.6312 92.733 47.0486 92.8628C46.4014 92.9926 45.6894 92.1489 46.013 91.1106C43.4239 91.6298 42.5177 93.9011 43.1003 96.0426C42.6472 95.7181 42.1941 95.4585 41.9352 95.0043C40.8348 93.2521 41.3526 90.9809 43.1003 89.9426ZM44.2006 95.7181C44.2006 95.4585 44.589 95.1989 45.1716 95.1989C45.6894 95.1989 46.1425 95.3287 46.2072 95.5883C46.2072 95.8479 45.8188 96.1075 45.2363 96.1075C44.6537 96.1724 44.2006 95.9777 44.2006 95.7181ZM34.8799 90.5915C34.8799 90.6564 34.8799 90.6564 34.8799 90.7213C34.8799 90.6564 34.8799 90.5915 34.8799 90.5915ZM45.8836 104.479C45.2363 104.544 44.5243 104.609 43.8123 104.609C43.4886 104.609 43.165 104.414 42.9061 104.349C43.9417 104.544 44.9126 104.544 45.8836 104.479ZM44.9126 105.582C44.7185 105.582 44.589 105.647 44.3948 105.647C44.2006 105.647 44.0065 105.582 43.8123 105.582C44.2006 105.582 44.589 105.517 44.9126 105.582ZM82.3897 101.559L62.389 96.8862C62.6479 95.6532 62.7774 94.3553 62.7774 93.0575L82.3897 101.559ZM42.453 41.2074C40.7054 41.2723 38.893 41.467 37.1454 41.7266C33.6501 42.2458 30.1548 43.2192 26.7243 44.1926C28.4072 43.4787 30.0901 42.8947 31.773 42.3755C33.5206 41.8564 35.2683 41.467 37.0159 41.2074C38.7636 40.9479 40.5759 40.7532 42.3883 40.7532C44.2007 40.7532 46.013 40.9479 47.7606 41.2723C46.013 41.1426 44.2006 41.1426 42.453 41.2074ZM43.5534 42.7C42.453 42.8298 41.3526 42.8947 40.317 43.0245C39.2166 43.1543 38.181 43.284 37.0806 43.4787C35.9803 43.6734 34.9446 43.8681 33.909 44.0628C32.8734 44.2575 31.773 44.517 30.6726 44.6468C31.7083 44.2575 32.7439 43.8681 33.7796 43.6085C34.8152 43.3489 35.9156 43.0894 37.0159 42.8947C38.1163 42.7 39.2166 42.5702 40.2523 42.5702C41.3526 42.5702 42.453 42.5702 43.5534 42.7ZM54.8806 56.1979L49.8966 75.9255C48.6668 75.6011 47.3723 75.3415 46.1425 75.2117L54.8806 56.1979ZM51.9679 76.6394L54.6217 60.2213L53.0036 77.0936C52.6152 76.9638 52.2915 76.7692 51.9679 76.6394ZM56.1752 53.2128C56.1752 52.9532 56.0457 52.6936 55.7868 52.6287C55.5279 52.5638 55.269 52.6936 55.1396 52.9532L46.4014 71.9021L26.8537 50.2277C31.9025 48.0862 37.0806 46.9181 42.3236 46.6585L44.9126 67.3596L44.2006 46.5936C47.8901 46.5287 51.5148 46.7883 55.0748 47.6319L55.4632 49.384C55.5279 49.5787 55.6574 49.7734 55.8516 49.7734C55.981 49.8383 56.1105 49.7734 56.2399 49.7085C56.3046 49.6436 56.3694 49.6436 56.3694 49.5787L57.405 48.2809C61.677 49.4489 65.7548 51.3309 69.509 53.7319L59.0879 69.2415L71.1272 54.6404C74.6872 57.0415 77.7941 60.0266 80.6421 63.466L54.6865 73.2L56.1752 53.2128ZM77.7294 57.4958C79.6065 58.9883 81.3541 60.7404 82.9723 62.5575L82.0014 62.8819C80.7716 61 79.3476 59.183 77.7294 57.4958ZM76.9527 55.0947C79.6712 57.1064 82.0661 59.5075 84.3316 62.0383L83.2312 62.4277C81.3541 59.8319 79.3476 57.366 76.9527 55.0947ZM76.1112 52.7585C79.6712 55.2245 82.7781 58.2745 85.6261 61.5841L84.461 62.0383C82.0014 58.6638 79.3476 55.4192 76.1112 52.7585ZM75.3345 50.3575C79.477 53.083 83.1017 56.5872 86.4028 60.3511C86.597 60.5458 86.7265 60.8053 86.9206 61.0649L85.6908 61.5192C82.7781 57.366 79.3476 53.5372 75.3345 50.3575ZM4.32865 124.661C7.17665 127.97 10.2836 130.955 13.8436 133.421C10.6719 130.696 7.95337 127.516 5.55846 124.206H5.62319C7.88865 126.737 10.3483 129.138 13.0021 131.085C10.6072 128.879 8.60065 126.348 6.78828 123.752L7.11192 123.622C8.7301 125.374 10.3483 127.256 12.1606 128.684C11.1897 127.646 10.5425 126.413 9.70101 125.31C15.5912 131.864 23.1643 136.277 31.2552 138.743L27.8246 143.026C18.6334 139.846 10.413 134.265 4.00501 126.348C7.17665 129.917 10.6719 133.227 14.6203 135.822C10.6072 132.643 7.24137 128.814 4.32865 124.661ZM35.0741 139.716C44.5243 141.728 54.557 140.819 63.8777 136.796L64.0719 136.99C62.0654 138.029 59.9294 139.002 57.7286 139.781C60.1236 139.262 62.389 138.548 64.7192 137.704L64.9134 137.899C62.0654 139.392 59.0879 140.624 55.981 141.533C59.2821 141.014 62.5185 139.976 65.6901 138.743L65.8196 138.872C62.1301 140.754 58.2465 142.377 54.1686 143.285C58.4407 142.766 62.5832 141.468 66.661 139.846L66.7257 139.911C62.1948 142.247 57.4697 144.129 52.421 145.037C57.3403 144.583 62.1948 143.155 66.8552 141.273C57.0166 145.751 46.5308 146.984 36.3686 145.232L35.0741 139.716ZM76.4996 133.811C79.8007 130.955 82.7781 127.84 85.173 124.271C82.4545 127.451 79.2828 130.177 75.9817 132.578V132.513C78.5061 130.242 80.901 127.776 82.8428 125.115C80.6421 127.516 78.1177 129.528 75.5287 131.345L75.3992 130.955C77.1468 129.333 79.0239 127.711 80.4479 125.894C79.4123 126.867 78.1825 127.516 77.0821 128.36C83.9432 122.13 88.6036 114.148 90.9337 105.517L95.2057 109.086C92.1636 118.69 86.4028 127.386 78.1825 134.07C81.7425 130.89 85.0436 127.386 87.6327 123.428C84.461 127.516 80.6421 130.89 76.4996 133.811ZM91.7105 101.818C93.3934 92.6681 92.4872 83.0638 88.6036 74.1085L88.733 73.9787C89.7687 75.9904 90.8043 78.067 91.581 80.2734C91.1279 77.8723 90.4159 75.6011 89.5745 73.2649L89.7039 73.1351C91.1926 75.9904 92.4225 78.9106 93.3287 82.0904C92.8108 78.7809 91.8399 75.5362 90.6101 72.3564L90.6748 72.2915C92.5519 75.9904 94.1701 79.8192 95.0763 83.9075C94.5585 79.6245 93.3287 75.4713 91.7105 71.4479C94.0407 75.9255 95.853 80.7277 96.8239 85.7245C96.3708 80.9872 95.0763 76.3798 93.3287 71.9021C97.4065 81.1819 98.5716 91.1106 97.1476 100.715L91.7105 101.818ZM87.9563 60.6755C81.2894 51.7851 72.357 45.4904 62.389 42.0511L63.7483 40.3638C73.9752 43.9979 83.1017 50.617 89.8981 59.8968L87.9563 60.6755ZM74.1047 44.1277C75.7228 44.1926 77.9883 44.0628 79.7359 43.2192C79.6065 45.1011 80.1243 47.1128 80.6421 48.5404C78.5708 46.9181 76.3701 45.4255 74.1047 44.1277ZM32.4203 37.4436C33.5854 36.3404 35.0741 34.7181 35.7214 33.0309C36.8865 34.4585 38.6341 35.5617 40.0581 36.2755C37.469 36.4702 34.9446 36.8596 32.4203 37.4436ZM53.0036 37.7681L53.4566 39.8447C42.9061 38.1575 31.9025 39.5851 21.7403 44.517L20.3163 42.9596C30.7374 37.7681 42.0646 36.1457 53.0036 37.7681ZM35.7214 77.8075C32.9381 79.4947 30.8668 81.8309 29.4428 84.4915L26.6596 84.3617L5.81737 28.5532L35.7214 77.8075ZM12.6785 49.9681C3.68137 56.717 -2.59717 65.8021 -6.02772 75.9255L-7.6459 74.5628C-4.02118 64.1798 2.58101 54.9 11.9665 48.0213L12.6785 49.9681ZM-3.05026 62.4926C-3.05026 60.9351 -3.17972 58.8585 -3.89172 57.1713C-2.07936 57.366 0.0566463 56.7819 1.54537 56.2628C-0.137537 58.2745 -1.69099 60.2862 -3.05026 62.4926ZM-10.235 85.4649L-8.16372 85.0755C-9.71717 95.5234 -8.29317 106.361 -3.43863 116.419L-4.99208 117.847C-10.1055 107.464 -11.7237 96.3021 -10.235 85.4649ZM24.3294 92.733L27.2421 94.0309C27.3716 96.8862 28.1483 99.8064 29.7017 102.402L-19.4263 132.383L24.3294 92.733ZM1.99846 125.439C8.60064 134.2 17.3388 140.43 27.1126 143.869L25.7534 145.556C15.7206 141.857 6.72355 135.303 0.0566444 126.153L1.99846 125.439ZM26.6596 146.27L33.5206 137.704L29.5723 154.901L26.6596 146.27ZM57.5992 148.671C56.4341 149.774 54.9454 151.397 54.2981 153.084C53.133 151.656 51.3854 150.618 49.9614 149.904C52.5505 149.71 55.0748 149.255 57.5992 148.671ZM36.9512 148.412L36.4981 146.335C47.0486 148.022 58.0523 146.595 68.2792 141.663L69.7032 143.22C59.2174 148.412 47.8901 150.034 36.9512 148.412ZM44.5243 113.694L45.8188 110.903C48.7316 110.773 51.6443 109.995 54.2334 108.372L84.1374 157.627L44.5243 113.694ZM77.2763 136.147C86.3381 129.333 92.6814 120.118 96.0472 109.865L97.6654 111.228C94.0407 121.74 87.3737 131.15 77.9883 138.094L77.2763 136.147ZM93.0697 123.687C93.0697 125.245 93.1992 127.321 93.9112 129.009C92.0988 128.814 89.9628 129.398 88.4741 129.917C90.157 127.905 91.6457 125.829 93.0697 123.687ZM89.8981 103.311L100.643 101.169L106.921 107.723L89.8981 103.311ZM100.837 81.8309C101.937 82.9989 103.426 84.3617 105.174 85.0755C103.685 86.2436 102.52 88.1904 101.808 89.6181C101.614 87.0224 101.355 84.4266 100.837 81.8309ZM100.319 100.066L98.2479 100.455C99.6719 90.2021 98.1832 79.5596 93.4581 69.6958L95.0116 68.2681C99.9956 78.5213 101.678 89.4883 100.319 100.066ZM60.253 83.7777C58.7643 81.3117 56.7577 79.4298 54.4276 78.0021L54.6865 74.3681L109.381 53.8617L60.253 83.7777Z" fill="#96613E"/>
<path d="M61.2884 27.6447C61.4179 27.5798 61.4826 27.4501 61.5473 27.2554L64.1364 14.3415C64.2011 14.0171 64.007 13.7575 63.6833 13.6926C63.3597 13.6277 63.1008 13.8224 63.0361 14.1469L60.447 27.0607C60.3822 27.3852 60.5764 27.6447 60.9001 27.7096C61.0295 27.7096 61.159 27.7096 61.2884 27.6447Z" fill="#96613E"/>
<path d="M28.2775 158.34L25.6884 171.254C25.6237 171.579 25.8179 171.838 26.1415 171.903C26.271 171.903 26.4004 171.903 26.5299 171.838C26.6593 171.773 26.7241 171.644 26.7888 171.449L29.3779 158.535C29.4426 158.211 29.2484 157.951 28.9248 157.886C28.6012 157.886 28.3422 158.081 28.2775 158.34Z" fill="#96613E"/>
<path d="M109.963 108.567C109.899 108.827 110.028 109.151 110.352 109.281L122.974 112.98C123.103 113.045 123.297 112.98 123.427 112.915C123.556 112.85 123.621 112.72 123.686 112.59C123.75 112.266 123.621 112.006 123.297 111.877L110.675 108.178C110.352 108.113 110.028 108.242 109.963 108.567Z" fill="#96613E"/>
<path d="M97.6652 168.139C96.8238 168.269 95.6587 168.659 94.0405 169.307C92.8754 169.827 92.0987 170.086 91.6456 170.216C91.1925 170.346 90.7394 170.411 90.2863 170.346C89.8332 170.281 89.4448 170.151 88.9918 169.892C88.6034 169.632 88.215 169.243 87.9561 168.788C87.5678 168.139 87.3736 167.49 87.3088 166.647C87.2441 165.868 87.4383 165.154 87.8914 164.505C88.3445 163.856 88.8623 163.337 89.5743 162.883C90.4158 162.364 91.3219 162.104 92.2281 162.039C93.199 161.975 93.7168 162.039 93.911 162.299C94.1052 162.559 94.4936 163.143 95.1408 164.116H95.2703L95.9176 163.727L95.9823 163.532C95.2056 162.104 94.623 161.001 94.3641 160.093L94.1699 160.028C93.2638 160.093 92.3576 160.287 91.3867 160.612C90.4158 160.936 89.639 161.326 88.927 161.78C87.1147 162.883 86.0143 164.246 85.5612 165.868C85.1081 167.49 85.3023 169.048 86.2732 170.605C86.5968 171.189 87.0499 171.644 87.503 172.033C87.9561 172.422 88.4739 172.682 88.9918 172.812C89.5096 172.942 90.0274 173.006 90.6747 172.942C91.2572 172.877 91.8398 172.747 92.3576 172.617C92.8754 172.422 93.5874 172.163 94.4936 171.773C95.3998 171.384 96.1117 171.125 96.6296 170.995C97.1474 170.865 97.6005 170.8 98.1183 170.865C98.5714 170.93 99.0245 171.06 99.4776 171.384C99.9307 171.644 100.254 172.098 100.643 172.617C101.096 173.396 101.355 174.174 101.355 175.083C101.355 175.927 101.096 176.705 100.578 177.484C100.06 178.198 99.4128 178.847 98.5067 179.366C97.8594 179.755 97.2121 180.08 96.5001 180.274C95.7881 180.469 95.1408 180.599 94.623 180.534C94.1052 180.534 93.7168 180.404 93.5227 180.21C93.3285 180.015 92.8754 179.431 92.1634 178.393L92.0339 178.328L91.4514 178.717L91.3867 178.847C92.487 180.794 93.1343 182.027 93.3932 182.546L93.5874 182.676C95.2056 182.481 96.8885 181.897 98.5714 180.859C100.578 179.626 101.937 178.003 102.649 175.992C103.361 173.98 103.167 172.098 102.131 170.346C101.614 169.437 100.902 168.788 100.125 168.399C99.2834 168.139 98.5067 168.01 97.6652 168.139Z" fill="#96613E"/>
<path d="M-15.1544 11.8106C-14.8307 11.6809 -14.5718 11.6809 -14.3129 11.8106C-14.054 11.9404 -13.7951 12.2 -13.5362 12.5894L-7.51655 22.5181C-7.25764 22.9074 -6.93401 23.5564 -6.41619 24.4649C-5.89837 25.3734 -5.57474 25.9574 -5.44528 26.217C-5.31583 26.4766 -5.2511 26.7362 -5.2511 26.866C-5.2511 27.0606 -5.38055 27.2553 -5.70419 27.45C-5.9631 27.7096 -6.35146 27.9691 -6.86928 28.2936V28.4883L-6.54564 29.0723L-6.35146 29.1372C-5.44528 28.5532 -4.40965 27.8394 -3.17983 27.1255C-2.20892 26.5415 -1.49692 26.1521 -1.04383 25.9574L-0.979099 25.8277L-1.30274 25.2436L-1.43219 25.1787C-2.14419 25.5681 -2.59728 25.8277 -2.85619 25.8926C-3.1151 25.9574 -3.30928 25.9574 -3.43873 25.9574C-3.56819 25.8926 -3.69765 25.8277 -3.8271 25.633C-4.02128 25.4383 -4.40964 24.9191 -4.99219 23.9457C-5.57473 22.9723 -6.02783 22.3234 -6.28673 21.934L-11.9827 12.5245L2.64563 17.8457L7.17654 19.4681L8.66527 19.9872C9.76563 19.5979 10.6071 19.3383 11.1249 19.2085C10.4129 18.1053 9.76563 17.0021 9.05363 15.8989L6.98236 12.5245L3.42236 6.68404C3.16345 6.29468 2.83981 5.64574 2.32199 4.73723C1.80417 3.82872 1.48054 3.24468 1.35108 2.98511C1.22163 2.72553 1.1569 2.53085 1.1569 2.33617C1.1569 2.14149 1.28636 1.94681 1.54527 1.75213C1.80417 1.49255 2.19254 1.23298 2.71036 0.908511L2.77509 0.778723L2.45145 0.194681L2.19254 0C1.73945 0.324468 0.897995 0.843617 -0.20237 1.55745C-1.43219 2.33617 -2.4031 2.85532 -3.05037 3.24468V3.43936L-2.72673 4.0234L-2.59728 4.0883C-2.07946 3.82872 -1.6911 3.56915 -1.43219 3.43936C-1.10855 3.24468 -0.849644 3.17979 -0.72019 3.24468C-0.590734 3.24468 -0.396551 3.37447 -0.20237 3.63404C-0.00818825 3.89362 0.380173 4.47766 1.02744 5.38617C1.60999 6.35957 2.06308 6.94362 2.19254 7.26809L7.95327 16.8074C6.78818 16.483 5.55836 16.0287 4.32854 15.5745L-5.83365 11.8755L-12.8242 9.15C-13.342 9.53936 -13.9893 9.92872 -14.8307 10.4479C-15.1544 10.6426 -15.9311 11.0968 -17.0962 11.7457V11.9404L-16.7726 12.5245L-16.6431 12.5894C-15.9311 12.1351 -15.478 11.8755 -15.1544 11.8106Z" fill="#96613E"/>
<path d="M128.475 48.2159L127.957 48.5404L127.893 48.6702C127.957 48.8649 128.087 49.2542 128.346 49.9681C128.54 50.6819 128.669 51.1361 128.734 51.3308C128.41 51.7202 128.087 52.1095 127.634 52.434C127.181 52.7585 126.08 53.4723 124.333 54.5106L122.326 55.7436C121.873 55.0298 121.161 53.9266 120.19 52.3691C119.284 50.9415 118.701 49.9032 118.378 49.2542C119.219 48.6702 119.866 48.2808 120.32 48.0212C121.096 47.567 121.679 47.1776 122.197 46.983C122.65 46.7883 122.973 46.6585 123.103 46.6585C123.232 46.6585 123.362 46.7234 123.491 46.7883C123.556 46.8532 123.815 47.1776 124.203 47.6319L124.656 48.2159L124.786 48.2808L125.304 47.9564L125.368 47.8266L123.815 45.3606C123.362 44.517 122.909 43.7383 122.391 42.8947L122.261 42.8298L121.744 43.1542L121.679 43.284L122.067 43.9978C122.261 44.3872 122.391 44.6468 122.391 44.7766C122.456 44.9064 122.456 45.0361 122.391 45.1659C122.326 45.2308 122.132 45.4904 121.679 45.8149C121.226 46.1393 120.708 46.5287 119.996 46.9181C119.349 47.3074 118.572 47.7617 117.795 48.2159L116.501 45.9447L115.336 43.933L114.3 42.1159C115.141 41.467 115.853 41.0127 116.436 40.6234C116.824 40.3638 117.472 40.0393 118.313 39.5851C119.154 39.1308 119.866 38.8713 120.449 38.8064C120.902 39.3255 121.29 39.9095 121.679 40.4936C121.679 40.5585 121.744 40.6234 121.744 40.6883H121.873L122.391 40.3638V40.234C121.549 38.6766 121.032 37.5085 120.773 36.6649L120.643 36.6C118.766 37.7681 116.63 39.1308 114.235 40.5585C113.523 41.0127 111.905 41.9213 109.381 43.4138L109.316 43.5436L109.64 44.1276H109.769L110.675 43.6734C110.934 43.5436 111.128 43.4787 111.258 43.4138C111.387 43.4138 111.517 43.4138 111.581 43.4138C111.646 43.4138 111.776 43.5436 111.905 43.6734C112.034 43.8032 112.229 43.9978 112.423 44.3872C112.617 44.7117 112.941 45.1659 113.264 45.6851L114.818 48.151L117.277 52.1744C117.666 52.8234 118.248 53.7968 118.896 55.0298C119.608 56.2627 119.931 56.9766 119.931 57.0415C119.931 57.1064 119.737 57.4308 119.413 57.8851V58.0798L119.608 58.4691L119.737 58.534C120.449 58.0149 121.161 57.5606 121.873 57.1064L124.85 55.2893C127.116 53.9266 128.993 52.8234 130.417 51.9798V51.85C130.093 51.2659 129.705 50.617 129.317 49.7734C128.928 48.9298 128.605 48.3457 128.475 48.0212V48.2159Z" fill="#96613E"/>
</svg>
