<svg width="140" height="122" viewBox="0 0 140 122" fill="none" xmlns="http://www.w3.org/2000/svg">
<g clip-path="url(#clip0)">
<path d="M108.622 48.9478C107.053 50.0561 105.392 51.1643 103.916 52.3649C102.07 53.8426 100.224 55.4126 98.3783 56.9826C97.1786 57.9985 96.0711 59.0144 94.9637 60.0303C93.1179 61.6927 91.2722 63.4474 89.4264 65.2022C86.9347 67.6957 84.1661 70.0046 81.9512 72.8676C79.5517 75.9153 78.0751 79.6094 78.7211 83.673C78.9057 84.7813 79.1825 85.8895 79.5517 86.9054C81.0283 92.262 81.8589 97.6185 81.1206 103.252C80.6591 106.854 79.3671 110.179 77.6137 113.411C76.5062 115.443 75.491 117.567 74.3836 119.599C73.7376 120.707 73.2761 122.277 71.5227 122C69.3078 121.723 68.5695 120.799 68.0158 118.675C67.0929 114.796 66.17 111.01 64.0474 107.5C62.7554 105.284 62.2939 105.284 59.9868 106.3C55.7415 108.055 51.3117 109.07 46.6051 108.978C43.0982 108.886 40.3295 107.223 37.3763 105.838C34.6077 104.545 31.5622 103.714 28.7013 102.606C27.317 102.052 26.1173 101.313 24.8253 100.666C22.3335 99.558 19.934 98.4497 17.4423 97.4338C14.7659 96.2332 13.1048 94.1091 12.1819 91.4308C11.5359 89.399 10.3361 88.0137 8.39809 87.2748C7.01378 86.7207 6.55235 85.7972 6.55235 84.5042C6.46006 82.3801 6.36777 80.2559 6.1832 78.1318C6.09091 76.7465 5.81405 75.4535 5.53718 74.0682C4.61431 69.3581 4.24516 64.7404 4.61431 60.0303C4.89117 56.8903 6.27548 54.212 8.12123 51.6261C8.49038 51.1643 8.85953 50.7026 9.04411 50.1484C10.2438 47.3778 12.1819 45.2537 14.4891 43.4066C15.5042 42.5754 15.5042 42.1136 14.2122 41.6518C13.4739 41.3748 12.7356 41.3748 11.9973 41.1901C11.4436 41.0054 10.9821 40.6359 10.5207 40.3589C9.22868 39.5277 8.02894 38.6041 6.73692 37.773C6.73692 37.773 6.64463 37.773 6.64463 37.6806C4.61431 36.1106 2.58399 34.6329 0.645952 32.9705C-0.369209 32.2317 -5.98133e-05 31.4929 0.738239 30.6617C3.04542 28.3528 6.09091 27.614 9.13639 27.2446C11.8127 26.9675 14.4891 27.2446 17.2577 27.2446C18.1806 27.2446 19.1957 27.4293 20.1186 27.4293C26.025 27.4293 31.1931 29.4611 36.2689 32.2317C37.5609 32.9705 39.0375 33.34 40.5141 33.617C44.7593 34.5406 49.0968 34.91 53.2498 33.1552C54.8187 32.5088 56.3875 31.5852 57.9564 30.754C62.2939 28.6299 66.7237 26.6904 71.0612 24.5663C72.3533 23.9198 73.6453 23.2733 74.845 22.4421C77.6137 20.5027 80.936 20.2256 83.8892 18.9327C86.4732 17.8244 89.0573 16.6238 91.549 15.2385C94.3177 13.7608 96.8094 11.8214 99.6703 10.4361C103.27 8.49665 107.053 6.74192 110.837 5.1719C114.898 3.50952 119.051 2.21656 123.111 0.831248C125.419 0.0924142 127.633 -0.554066 130.033 0.64654C130.402 0.831248 130.956 0.738894 131.417 0.831248C133.355 1.10831 134.278 2.58598 135.386 3.97129C136.678 5.63367 137.877 7.29605 139.169 8.86607C139.908 9.69726 140.369 10.159 139.723 11.452C139.169 12.5602 139.723 14.1303 139.631 15.4232C139.446 18.5633 139.262 21.611 137.047 24.2892C134.924 26.7828 132.248 28.4452 129.664 30.3846C127.633 32.047 125.788 33.8941 123.85 35.6488C122.004 37.2188 120.158 38.6965 118.312 40.2665C117.482 41.0054 116.744 41.9289 115.821 42.6677C113.883 44.3301 111.852 45.9001 109.914 47.4702C109.361 47.9319 109.084 48.5784 108.715 49.1325C108.622 49.0402 108.622 49.0402 108.622 48.9478ZM98.0092 31.4929C98.1015 31.3082 98.1937 31.1235 98.1937 30.9387C98.7475 31.1235 99.3935 31.1234 99.6703 31.4929C100.686 32.5088 101.608 33.617 102.439 34.8176C103.177 35.8335 103.639 37.0341 104.285 38.1424C104.746 39.0659 105.3 39.9895 105.854 40.913C106.13 41.3748 106.592 41.7442 107.053 42.206C107.422 41.6518 107.976 41.1901 108.161 40.6359C108.345 40.2665 108.068 39.8048 107.884 39.4353C107.33 38.3271 106.684 37.2188 106.038 36.1106C104.838 34.1711 103.639 32.2317 101.516 31.0311C101.239 30.8464 101.239 30.1999 101.147 29.8305C101.516 29.8305 101.978 29.7381 102.347 29.9228C102.624 30.0152 102.808 30.3846 103.085 30.5693C105.3 33.0629 107.146 35.7412 108.345 38.8812C108.622 39.5277 108.899 40.4512 109.914 39.8971C110.837 39.4353 110.837 38.6965 110.376 37.773C109.914 36.8494 109.268 36.0182 109.084 35.0023C108.53 32.3241 106.5 30.8464 104.746 28.9993C104.285 28.5375 104.192 27.8911 103.916 27.2446C104.562 27.4293 105.208 27.7063 105.854 27.8911C105.946 27.8911 106.038 28.0758 106.13 28.1681C107.884 29.9228 108.807 32.1393 110.007 34.2635C110.653 35.5565 111.575 36.7571 112.406 38.05C113.144 37.4959 114.344 37.0341 113.606 35.7412C111.945 32.9705 110.191 30.2923 108.622 27.614C108.438 27.2446 108.438 26.6904 108.345 26.321C108.807 26.5057 109.453 26.5057 109.637 26.8752C110.468 28.0758 111.299 29.3687 112.037 30.6617C112.96 32.1393 113.79 33.7094 114.805 35.187C114.99 35.4641 115.636 35.5565 116.098 35.7412C116.282 35.187 116.744 34.5406 116.559 34.2635C115.267 32.1393 113.883 30.1076 112.498 28.0758C112.129 27.5216 111.114 27.2446 111.945 26.5057C112.129 26.321 113.144 26.6904 113.606 27.0599C114.344 27.614 114.898 28.2605 115.359 28.8146C115.636 29.5534 115.728 30.2923 116.005 30.8464C116.374 31.6776 116.836 32.5088 117.297 33.2476C117.482 33.5247 118.036 33.7094 118.405 33.8941C118.682 33.4323 119.235 32.6935 119.051 32.5088C117.666 30.5693 116.19 28.6299 114.713 26.7828C114.529 26.5057 114.436 26.1363 114.344 25.8593C114.713 25.7669 115.082 25.7669 115.451 25.7669C115.544 25.7669 115.728 25.9516 115.821 25.9516C116.374 26.044 117.113 26.2287 117.482 25.9516C117.851 25.6745 117.943 24.9357 118.036 24.3816C118.128 24.0122 118.036 23.6428 118.036 23.2733C118.405 23.3657 118.589 23.458 118.774 23.458C119.235 23.458 119.697 23.3657 120.25 23.3657C120.158 22.9039 120.158 22.3498 119.974 21.888C119.881 21.611 119.42 21.3339 119.42 21.0568C119.328 20.5951 119.512 20.1333 119.512 19.6715C119.881 19.8562 120.25 20.0409 120.62 20.2256C120.896 20.4104 121.081 20.7798 121.45 21.2415C121.266 19.1174 121.45 19.025 123.019 19.6715C123.296 19.7639 123.665 19.7639 123.942 19.7639C123.85 19.3945 123.85 19.025 123.665 18.8403C123.019 17.9168 123.388 17.6397 124.311 17.5474C124.773 17.455 125.234 17.6397 125.511 17.6397C125.326 17.0856 125.234 16.6238 125.049 16.0697C125.695 16.0697 126.249 16.0697 126.895 16.0697L126.987 16.1621C127.449 16.0697 128.003 16.0697 128.372 15.7926C128.556 15.7003 128.372 15.0538 128.556 14.6844C128.741 14.2226 129.018 13.6685 129.387 13.2991C129.664 13.022 130.217 13.1144 130.494 12.8373C131.694 11.8214 131.602 11.7291 132.34 13.2991C132.802 14.315 133.448 15.3309 134.094 16.2544C134.278 16.1621 134.463 16.0697 134.74 16.0697C134.647 15.0538 134.74 13.9456 134.463 13.022C134.094 11.6367 133.355 10.4361 132.986 9.05078C132.894 8.68136 133.078 8.12724 133.171 7.66546C133.54 7.85017 134.001 8.03488 134.37 8.31194C134.555 8.4043 134.555 8.58901 134.647 8.77372C136.77 12.0985 136.77 15.6079 135.662 19.3021C135.109 20.8721 134.647 22.4421 134.186 24.0122C134.37 24.1045 134.463 24.1969 134.647 24.2892C135.016 23.8275 135.478 23.3657 135.847 22.8116C137.97 19.4868 138.339 15.7926 138.062 12.0061C137.97 11.1749 137.6 10.2514 136.954 9.6049C135.57 8.31194 134.555 6.83428 133.909 5.07955C133.54 4.06365 132.617 2.86304 131.694 2.40127C128.095 0.923603 124.588 2.21656 121.173 3.41717C118.312 4.43307 115.636 5.63367 112.867 6.74192C110.929 7.48076 108.991 8.21959 107.053 9.05078C105.208 9.88197 103.454 10.9902 101.608 11.9138C99.9472 12.7449 98.1937 13.2991 96.7171 14.2226C94.8714 15.5156 93.2102 17.178 91.3645 18.4709C88.5959 20.4104 85.6427 22.3498 82.7817 24.1045C82.0434 24.5663 81.2129 24.8434 80.3823 25.0281C79.9208 25.1204 79.4594 24.8434 78.998 24.6587C79.2748 24.3816 79.5517 24.0122 79.9208 23.7351C80.29 23.458 80.6591 23.0886 81.0283 22.8116C80.936 22.6269 80.8437 22.4422 80.7514 22.3498C80.0131 22.5345 79.1825 22.7192 78.5365 23.0886C76.8754 23.9198 75.3988 24.9357 73.7376 25.7669C70.4152 27.4293 67.0929 29.0917 63.6783 30.754C62.1094 31.4929 60.5405 32.3241 58.9716 32.9705C57.6796 33.5247 56.3875 34.0788 55.1878 34.6329C54.4495 35.0023 53.8035 35.6488 53.0652 35.8335C51.1272 36.2029 49.2814 36.48 47.3434 36.6647C46.6051 36.7571 45.7745 36.5724 45.0362 36.3876C44.021 36.1106 42.9136 35.7412 41.8984 35.4641C39.0375 34.6329 35.992 34.1711 33.3157 32.7858C29.0705 30.5693 24.6407 29.6458 19.934 29.8305C19.1034 29.8305 18.1806 29.9228 17.4423 29.6458C14.3968 28.5375 11.4436 29.0917 8.39809 29.7381C7.75208 29.8305 7.19836 30.0152 6.55235 30.2923C5.99862 30.477 5.4449 30.6617 5.26032 30.754C8.39809 30.9387 11.7204 30.9387 15.0428 31.3082C18.2728 31.6776 21.1338 33.1552 23.4409 35.5565C23.6255 35.7412 23.9947 36.1106 24.2715 36.0182C25.379 35.8335 26.3941 35.5565 27.4093 35.3717C27.4093 34.6329 27.4093 34.0788 27.4093 33.2476C27.963 33.617 28.3322 33.8017 28.3322 33.9864C28.7936 35.4641 29.9934 35.2794 31.1008 35.4641C33.6848 35.8335 36.1766 36.2953 38.6684 36.8494C41.1601 37.4035 43.5596 38.1424 46.0514 38.7889C46.6974 38.9736 47.3434 39.1583 48.0817 39.343C48.0817 39.5277 48.0817 39.62 48.0817 39.8048C47.6202 39.8971 47.2511 39.9895 46.7897 39.9895C45.2208 40.1742 43.6519 40.3589 41.9907 40.4512C41.3447 40.5436 40.6064 40.5436 39.9604 40.6359C37.9301 41.0054 36.2689 39.8048 34.3309 39.5277C33.3157 39.343 32.9465 38.8812 33.408 38.05C28.1476 35.8335 23.4409 37.9577 18.642 39.62C18.9189 41.2824 18.7343 41.2824 17.2577 42.9448C15.5965 44.7919 14.1199 46.7313 12.6433 48.6708C11.905 49.5943 11.4436 50.7949 10.8899 51.8108C10.1516 53.1038 9.22868 54.3044 8.58267 55.6897C7.93666 56.9826 7.38293 58.368 7.19836 59.7533C7.01378 62.1545 7.10607 64.4633 7.38293 66.8646C7.65979 69.6352 8.12123 72.4982 8.49038 75.2688C8.67496 75.2688 8.85953 75.2688 8.95182 75.2688C9.04411 73.8835 8.85953 72.4058 9.22868 71.1128C9.59783 69.9122 9.13639 68.2499 10.8899 67.1416C10.8899 67.8804 10.9821 68.1575 10.8899 68.4346C10.613 70.0969 10.0593 71.667 9.96698 73.3294C9.87469 75.6382 8.30581 77.5776 8.76724 79.8865C9.04411 81.3642 9.13639 82.8418 9.59783 84.3195C9.87469 85.3354 10.7976 85.8895 11.905 85.6125C12.0896 85.5201 12.0896 84.2272 11.905 83.5807C11.0744 81.1795 11.6282 78.8706 11.905 76.4694C11.905 76.2847 12.1819 76.1923 12.7356 75.6382C12.7356 76.8388 12.8279 77.67 12.8279 78.5012C12.7356 81.8259 12.7356 85.1507 14.4891 88.1984C14.6736 88.4754 14.6736 88.8449 14.6736 89.2143C14.8582 91.4308 15.6888 93.2779 17.6268 94.2014C21.8721 96.3256 26.2096 98.3574 30.5471 100.297C32.3928 101.128 34.3309 101.682 36.2689 102.329C36.638 102.421 37.1918 102.329 37.6532 102.144C39.2221 101.405 39.8681 99.3733 41.8984 99.2809C42.2676 99.2809 42.6367 98.3574 42.9136 97.8032C43.0982 97.2491 43.0982 96.5103 43.2827 95.9561C43.375 95.6791 43.7442 95.2173 43.9287 95.2173C44.2979 95.3097 44.7593 95.5867 44.8516 95.9561C45.0362 96.4179 44.9439 96.972 44.9439 97.5262C46.1436 97.6185 46.5128 97.1568 46.1436 96.1409C45.6822 94.7555 45.2208 93.3702 44.7593 91.9849C44.5748 91.5231 44.667 90.969 44.667 90.4149C44.8516 90.3225 44.9439 90.3225 45.1285 90.2302C45.4053 90.5996 45.7745 90.969 45.9591 91.4308C46.2359 92.262 46.4205 93.1855 46.6974 94.1091C47.0665 95.2173 47.528 96.3256 47.9894 97.7109C47.2511 98.4497 47.4357 99.7427 47.8971 101.036C48.0817 101.774 48.5431 102.421 48.6354 103.067C48.7277 103.622 48.3585 104.176 48.2663 104.822C47.8971 104.453 47.3434 104.083 47.2511 103.529C46.8819 101.959 46.7897 100.389 46.5128 98.8191C45.3131 99.3733 45.2208 100.482 45.8668 101.867C46.0514 102.236 45.9591 102.698 46.0514 103.16C45.5899 102.975 44.8516 102.79 44.667 102.421C44.2979 101.774 44.2056 101.036 43.9287 100.204C42.5444 101.22 42.083 102.421 43.1904 103.899C43.0982 103.991 43.0059 104.083 42.9136 104.176C42.083 103.991 41.1601 103.806 40.145 103.529C44.1133 107.131 48.6354 106.762 53.1575 106.207C55.7415 105.838 57.6796 103.899 60.079 103.252C62.4785 102.606 63.7705 100.851 64.7857 99.1885C68.0158 94.1091 69.1232 88.2907 69.2155 82.3801C69.3078 79.0553 68.7541 75.7306 69.8615 72.5905C70.6921 70.1893 71.1535 67.9728 70.1384 65.5716C69.3078 63.5398 68.8464 61.2309 67.6466 59.3839C66.3546 57.4444 64.4166 55.8744 62.6631 54.1197C61.4634 52.9191 60.1713 51.9955 59.0639 50.7949C56.849 48.3937 55.3724 45.5307 53.8035 42.6677C53.0652 41.3748 52.1423 40.5436 50.6657 40.3589C50.112 40.2665 49.6506 39.8048 49.0968 39.5277C49.0968 39.343 49.1891 39.1583 49.1891 38.9736C53.7112 37.3112 58.2333 35.6488 62.6631 34.0788C62.7554 34.2635 62.7554 34.3559 62.8477 34.5406C59.5253 36.0182 56.2953 37.5883 52.8806 39.1583C54.8187 40.8207 54.9109 40.8207 56.7567 39.4353C56.9413 39.343 57.2181 39.2506 57.4027 39.2506C58.3256 38.9736 59.2485 38.6965 60.079 38.3271C62.0171 37.4959 63.9551 36.5724 65.9854 35.8335C67.3698 35.2794 68.8463 34.8176 70.3229 34.3559C70.3229 34.1711 70.4152 33.9864 70.4152 33.7094C69.6769 33.2476 68.8464 32.8782 68.1081 32.4164C68.2003 32.4164 68.4772 32.4164 68.7541 32.3241C69.5846 31.9546 70.6921 31.6776 71.1535 31.0311C72.0764 29.8305 72.5378 29.6458 73.7376 30.754C74.1067 31.1234 74.7527 31.3082 75.5833 31.6776C74.7527 29.4611 74.7527 29.5534 76.4139 28.9993C78.0751 28.4452 79.644 27.7987 81.2129 26.9675C83.6123 25.8593 85.9195 24.5663 88.319 23.3657C88.6881 23.181 89.2419 23.2733 89.611 23.2733C89.7033 23.8275 89.7033 24.2892 89.9802 24.5663C91.0876 25.8593 90.7185 26.7828 89.5187 27.7063C88.6881 28.3528 88.1344 28.1681 87.4884 27.614C86.9347 27.1522 86.5655 26.5057 85.9195 26.1363C85.4581 25.9516 84.7198 25.9516 84.3506 26.2287C83.9815 26.4134 83.7969 27.0599 83.4278 27.8911C86.0118 27.1522 87.1193 27.8911 88.319 30.8464C87.5807 30.6617 86.8424 30.477 86.1964 30.0152C85.3658 29.4611 84.7198 29.2764 83.8892 30.1076C84.5352 30.5693 85.1812 30.9387 85.7349 31.4929C86.0118 31.7699 86.1041 32.1393 86.2887 32.5088C85.9195 32.6011 85.4581 32.7858 85.0889 32.6935C84.3506 32.4164 83.7969 31.8623 83.0586 31.5852C82.6895 31.4005 82.1357 31.6776 81.582 31.6776C81.7666 32.047 81.7666 32.5088 82.0434 32.7858C82.5049 33.2476 83.0586 33.5247 83.5201 33.8941C83.8892 34.2635 84.1661 34.6329 84.5352 35.0023C83.0586 34.7253 81.8589 34.1711 80.5669 33.7094C79.3671 33.2476 79.1825 32.047 80.1977 31.2158C80.8437 30.6617 81.6743 30.2923 82.4126 29.8305C83.2432 29.3687 83.4278 28.8146 82.5049 28.4452C81.9512 28.2605 81.2129 28.2605 80.6591 28.4452C79.9208 28.6299 79.3671 29.184 78.6288 29.2764C77.2445 29.5534 76.1371 30.0152 76.8754 31.6776C75.8602 32.047 75.0296 32.5088 74.1067 32.6011C73.0916 32.6935 72.1687 31.5852 70.8767 32.3241C71.3381 33.4323 73.3684 33.9864 72.261 35.3717C71.2458 35.2794 70.4152 35.0023 69.6769 35.0947C68.3849 35.3717 67.0929 35.9259 65.8932 36.48C63.7705 37.5882 61.6479 38.7889 59.5253 39.9895C59.9868 40.3589 60.2636 40.4512 60.5405 40.4512C64.5088 40.4512 68.4772 40.4512 72.4456 40.3589C74.2913 40.3589 76.1371 40.4512 77.9828 40.2665C80.6591 39.9895 83.3355 39.4353 86.0118 38.9736C87.673 38.6965 89.0573 39.62 89.8879 41.0977C91.1799 43.4066 90.6262 45.7154 89.7956 47.9319C89.1496 49.779 88.1344 51.4414 87.3038 53.1961C86.6578 54.4891 87.7653 56.7979 89.1496 57.2597C89.2419 55.782 87.1193 54.7661 88.1344 53.1961C88.4113 53.1038 88.6881 52.9191 88.965 52.8267C89.3342 54.0273 89.7033 55.2279 90.1647 56.4285C91.0876 55.9667 91.6413 55.6897 92.5642 55.2279C91.4568 53.6579 90.5339 52.1802 89.5187 50.7026C89.611 50.6102 89.611 50.4255 89.7033 50.3331C90.1647 50.5178 90.903 50.6102 91.1799 50.9796C91.8259 51.9032 92.3796 53.0114 92.7488 54.1197C93.2102 55.2279 93.3948 56.3362 92.0105 57.1674C91.549 57.4444 91.549 58.4603 91.4568 59.1068L92.0105 59.3839C92.4719 58.8297 92.8411 58.2756 93.3025 57.6291C93.3025 57.5368 93.3025 57.4444 93.3025 57.3521C95.056 57.3521 95.7943 56.1515 95.056 54.3967C94.2254 52.5496 93.3948 50.7026 92.6565 48.7631C92.5642 48.4861 92.5642 48.1166 92.4719 47.8396C92.6565 47.7472 92.8411 47.7472 93.0257 47.6549C93.8562 49.5019 94.5945 51.4414 95.5174 53.2885C95.7943 53.935 96.5326 54.9509 96.9017 54.9509C98.0092 54.8585 97.64 53.6579 97.7323 52.9191C97.7323 52.5496 97.4554 52.1802 97.3632 51.8108C97.1786 51.2567 96.994 50.7949 96.8094 50.2408C96.994 50.1484 97.1786 50.0561 97.3632 49.9637C97.8246 51.1643 98.1937 52.2726 98.6552 53.5655C100.501 52.4573 100.593 51.9032 99.7626 50.4255C99.3935 49.779 99.1166 49.1325 98.932 48.3937C97.9169 44.9766 96.8094 41.6518 93.3948 39.8048C93.1179 39.62 93.0257 39.2506 92.8411 38.9736C93.2102 38.8812 93.764 38.6041 93.9485 38.6965C94.8714 39.343 95.9788 39.8971 96.5326 40.8207C97.8246 42.9448 98.932 45.1613 100.039 47.4702C101.701 47.0084 101.055 45.6231 100.686 44.9766C99.1166 42.0213 97.3632 39.2506 95.6097 36.2953C95.3328 35.8335 95.4251 35.2794 95.2405 34.8176C95.702 35.0023 96.4403 35.0947 96.7171 35.5565C98.0092 37.4959 99.1166 39.5277 100.224 41.5595C100.962 42.9448 101.701 44.3301 102.439 45.8078C103.731 44.7919 103.27 43.6836 102.808 42.7601C102.347 41.8365 101.701 40.913 101.055 40.0818C99.6703 38.1424 98.1937 36.2953 96.8094 34.4482C96.6249 34.1711 96.5326 33.8017 96.4403 33.4323C96.8094 33.34 97.2709 33.2476 97.5477 33.34C97.9169 33.4323 98.286 33.7094 98.4706 34.0788C100.224 36.8494 101.978 39.62 103.639 42.483C103.916 43.0372 104.008 43.6836 104.192 44.3301C106.13 42.9448 105.392 41.7442 104.838 40.8207C103.362 38.3271 101.701 35.9259 100.039 33.5247C99.5781 32.8782 98.7475 32.2317 98.0092 31.4929ZM77.1522 48.8555C77.4291 47.4702 77.5214 46.2696 77.8905 45.1613C77.9828 44.7919 78.352 44.5148 78.6288 44.1454C78.8134 44.5148 79.0902 44.8842 79.0902 45.1613C78.998 46.639 78.8134 48.0243 78.5365 49.5019C77.5214 54.212 76.5985 58.9221 75.6756 63.6322C75.3988 65.1098 75.2142 66.6798 74.9373 68.3422C73.9222 67.3263 72.9993 66.3104 72.0764 65.3869C71.9841 65.4792 71.8918 65.5716 71.7073 65.6639C71.9841 66.4951 72.261 67.4187 72.5378 68.2499C72.7224 68.9887 72.9993 69.6352 74.0144 69.2658C74.2913 69.1734 75.0296 69.9122 75.0296 70.2817C74.9373 72.1287 74.7527 74.0682 74.3836 75.9153C74.1067 77.3929 74.6605 78.963 76.1371 79.7942C76.2293 78.4088 76.5985 77.2082 76.5062 76.0076C76.2293 72.6829 77.0599 69.5428 78.6288 66.6798C79.5517 64.9251 80.8437 63.3551 81.6743 61.6004C84.0738 56.7056 86.2887 51.7185 88.5959 46.7313C89.8879 43.8683 88.2267 41.3748 85.1812 41.5595C81.3052 41.8365 77.3368 42.3907 73.4607 42.5754C69.6769 42.7601 65.8932 42.8524 62.1094 42.8524C59.9868 42.8524 57.7719 42.6677 55.6493 42.483C55.7415 45.9925 59.1562 45.9001 60.8173 47.6549C60.7251 47.1007 60.2636 46.8237 59.8945 46.5466C59.6176 46.2696 59.433 45.9925 59.1562 45.8078C59.433 45.6231 59.8022 45.2537 60.079 45.2537C60.9096 45.2537 61.8325 45.4384 62.6631 45.5307C64.232 45.7154 65.7086 47.0084 67.2775 45.5307C67.3698 45.4384 67.5543 45.4384 67.6466 45.5307C69.1232 46.5466 70.6921 45.6231 72.1687 45.6231C73.4607 45.6231 74.7527 45.7154 76.2293 45.8078C75.0296 46.7313 75.2142 47.4702 77.1522 48.8555ZM72.8147 70.9281C72.6301 70.9281 72.4456 70.8358 72.1687 70.8358C71.5227 72.8676 70.7844 74.8994 70.4152 77.0235C70.2307 78.3165 70.2307 79.9789 70.8767 81.1795C71.615 82.7495 72.907 84.0424 74.199 85.2431C75.0296 86.0742 75.3988 86.9054 75.3988 88.0137C75.491 93.0008 74.199 97.8032 74.6605 102.883C74.9373 105.93 75.0296 109.255 73.4607 112.211C72.6301 113.781 72.1687 115.535 71.3381 117.105C71.1535 117.567 70.4152 117.844 71.0612 118.306C71.2458 118.491 72.0764 118.121 72.261 117.752C73.0916 116.644 73.8299 115.351 74.6605 114.15C76.6908 111.287 78.1674 108.055 78.6288 104.545C79.0902 100.759 79.2748 97.0644 78.2597 93.2779C77.4291 90.1378 77.3368 86.7207 76.5985 83.4883C76.4139 82.3801 75.3988 81.4565 74.7527 80.4406C74.1067 79.4247 73.0916 78.5935 72.8147 77.5776C72.4456 76.0076 72.6301 74.3452 72.6301 72.6829C72.7224 72.0364 72.7224 71.4823 72.8147 70.9281ZM22.0566 36.48C19.4726 35.4641 17.35 34.6329 15.1351 33.8017C15.0428 33.8941 15.0428 33.9864 14.9505 34.1711C15.9657 35.187 16.9808 36.1106 17.9037 37.1265C17.8114 37.3112 17.6268 37.4035 17.5345 37.5882C14.8582 36.48 13.2893 33.617 10.4284 32.9705C10.3361 33.1552 10.2438 33.2476 10.0593 33.4323C12.2742 35.187 14.3968 36.9418 16.6117 38.6041C16.5194 38.7889 16.3348 38.9736 16.2425 39.1583C14.5814 38.1424 13.0125 37.0341 11.3513 36.0182C11.259 36.1106 11.1667 36.2953 11.0744 36.3876C12.3665 37.4959 13.6585 38.5118 14.9505 39.5277C15.7811 40.1742 16.6117 40.0818 17.4423 39.343C18.0883 38.6965 18.8266 38.2347 19.6572 37.773C20.3032 37.3112 21.0415 37.0341 22.0566 36.48ZM133.724 18.1015C133.54 18.1015 133.355 18.1015 133.263 18.1015C133.078 18.6556 133.078 19.3945 132.802 19.8562C130.494 23.2733 128.095 26.5981 125.695 29.9228C125.419 30.2923 124.865 30.5693 124.496 30.9387C124.311 31.1235 124.403 31.4929 124.311 31.6776C124.588 31.6776 124.865 31.8623 125.049 31.7699C125.326 31.6776 125.603 31.4929 125.788 31.3082C127.91 29.5534 130.033 27.7063 132.156 25.8593C132.432 25.6745 132.617 25.3051 132.709 25.0281C133.171 23.0886 133.54 21.0568 133.909 19.1174C133.909 18.8403 133.817 18.4709 133.724 18.1015ZM61.9248 48.209C61.7402 48.3937 61.6479 48.4861 61.4634 48.6708C61.6479 48.9478 61.8325 49.2249 62.0171 49.5019C63.586 51.4414 65.1549 53.2885 66.5392 55.3203C67.7389 57.075 68.7541 59.0144 69.9538 60.8615C70.1384 61.2309 70.6921 61.4157 71.0612 61.6927C71.2458 61.3233 71.5227 60.9539 71.5227 60.6768C71.5227 60.0303 71.4304 59.2915 71.0612 58.8297C69.4924 56.6132 67.8312 54.4891 66.0777 52.4573C64.878 50.7949 63.4014 49.5943 61.9248 48.209ZM72.8147 58.4603C74.3836 57.075 74.3836 57.075 72.8147 56.0591C72.6301 55.9668 72.4456 55.6897 72.261 55.505C70.8767 53.7502 69.4924 51.9955 68.0158 50.3331C67.0006 49.2249 65.8932 48.1166 64.1397 48.0243C67.0006 51.5337 69.8615 54.9509 72.8147 58.4603ZM121.635 31.0311C121.542 30.6617 121.542 30.2923 121.358 30.0152C120.896 28.9993 120.25 28.0758 119.789 27.0599C119.42 26.2287 118.866 25.9516 118.036 26.321C117.205 26.6904 117.02 27.4293 117.39 28.2605C117.943 29.2764 118.497 30.2923 119.143 31.2158C119.328 31.5852 119.881 32.047 120.158 31.9546C120.804 31.8623 121.173 31.4005 121.635 31.0311ZM65.524 102.883C67.2775 106.115 69.0309 109.348 70.7844 112.58C70.969 112.488 71.0612 112.395 71.2458 112.303C69.9538 108.886 68.6618 105.376 65.524 102.883ZM123.942 29.2764C123.85 28.7222 123.757 28.5375 123.665 28.2605C122.927 26.9675 122.188 25.7669 121.45 24.5663C121.358 24.3816 120.712 24.2892 120.62 24.3816C120.343 24.6587 119.974 25.2128 120.066 25.3975C120.896 26.7828 121.819 28.1681 122.834 29.4611C122.927 29.5534 123.48 29.3687 123.942 29.2764ZM126.895 25.5822C127.08 25.5822 127.264 25.6745 127.449 25.6745C127.541 25.0281 127.91 24.3816 127.726 23.8275C127.264 22.5345 126.711 21.2415 125.234 20.8721C124.957 20.7798 124.588 21.0568 124.403 21.2415C124.311 21.3339 124.403 21.7957 124.496 21.9804C125.326 23.2733 126.065 24.4739 126.895 25.5822ZM71.8918 108.793C71.8918 107.039 68.2926 101.128 67.2775 101.036C68.7541 103.529 70.4152 106.392 71.8918 108.793ZM130.033 16.4391C128.372 17.9168 128.556 19.4868 130.402 20.7798C131.879 18.8403 131.879 18.1939 130.033 16.4391ZM87.5807 62.9857C86.9347 62.9857 86.2887 62.8933 86.0118 63.078C85.5504 63.3551 85.3658 63.9092 84.9966 64.371C85.5504 64.371 86.1041 64.4633 86.4732 64.2786C87.3038 63.9092 88.0421 63.3551 88.6881 62.7086C89.3342 62.0621 89.8879 61.3233 90.5339 60.6768C89.8879 60.6768 89.4264 60.9539 88.965 60.9539C87.7653 60.9539 87.027 61.3233 87.5807 62.9857ZM123.296 22.7192C123.111 22.8116 122.834 22.9039 122.65 22.9963C122.742 23.5504 122.834 24.1045 123.019 24.6587C123.388 25.4898 123.942 26.4134 124.496 27.1522C124.68 27.4293 125.049 27.614 125.419 27.8911C125.603 27.4293 126.065 26.8752 125.88 26.5981C125.142 25.2128 124.219 24.0122 123.296 22.7192ZM76.0448 52.0879C76.2293 52.0879 76.3216 52.0879 76.5062 52.0879C76.5062 51.5337 76.7831 50.8873 76.5062 50.6102C75.5833 49.4096 74.845 47.9319 73.0916 47.7472C72.9993 47.8396 72.8147 47.9319 72.7224 48.0243C73.8299 49.4096 74.9373 50.7026 76.0448 52.0879ZM71.2458 48.9478L71.1535 49.0402C72.6301 51.1643 74.1067 53.2885 75.6756 55.505C75.8602 54.6738 76.0448 54.0273 76.1371 53.6579C74.2913 51.9955 72.7224 50.5178 71.2458 48.9478ZM78.7211 73.1446C79.8286 71.667 80.8437 70.1893 81.9512 68.7116C82.0434 68.5269 81.8589 68.1575 81.8589 67.7881C81.582 67.8804 81.2129 67.8804 81.1206 67.9728C79.9208 69.6352 78.6288 71.0205 78.7211 73.1446ZM85.9195 56.2438C85.0889 57.2597 85.0889 58.368 86.0118 59.4762C86.1964 59.7533 86.9347 59.938 87.027 59.7533C87.3038 59.4762 87.7653 58.7374 87.5807 58.4603C87.1193 57.6291 86.4732 56.9827 85.9195 56.2438ZM101.701 48.4861C100.224 49.1325 99.9472 49.779 100.686 51.1643C100.87 51.4414 101.516 51.8108 101.701 51.7185C103.362 50.7026 101.885 49.6867 101.701 48.4861ZM108.161 45.9001C109.176 45.2537 110.376 44.9766 109.73 43.4989C109.361 42.6677 108.899 42.9448 108.345 43.3142C106.961 43.9607 107.515 44.8842 108.161 45.9001ZM70.8767 84.6889C70.6921 86.536 71.5227 87.6443 73.3684 88.2907C73.4607 86.536 71.9841 85.9819 70.8767 84.6889ZM112.406 42.7601C112.037 41.9289 111.76 41.2824 111.483 40.6359C111.022 40.913 110.283 41.2824 110.283 41.5595C110.283 42.1136 110.653 42.6677 111.022 43.2219C111.114 43.4066 111.852 43.0372 112.406 42.7601ZM104.008 46.639C102.808 47.1931 102.439 48.0243 103.085 49.0402C103.177 49.3172 103.916 49.502 104.1 49.3172C105.023 48.4861 104.562 47.6549 104.008 46.639ZM105.577 48.0243C106.038 47.6549 106.5 47.4702 106.592 47.1931C106.684 46.639 106.684 46.0848 106.5 45.5307C106.407 45.346 105.854 45.2537 105.484 45.1613C105.392 45.6231 105.208 46.0848 105.208 46.5466C105.208 46.916 105.392 47.3778 105.577 48.0243ZM114.159 41.6518C114.621 40.7283 114.898 40.1742 115.267 39.62C114.805 39.4353 113.975 38.8812 113.79 38.9736C112.96 39.7124 113.421 40.4512 114.159 41.6518ZM117.297 36.6647C116.651 37.1265 116.098 37.3112 115.913 37.6806C115.821 37.9577 116.19 38.4194 116.374 38.7889C116.836 38.6041 117.39 38.5118 117.574 38.1424C117.851 37.8653 117.482 37.3112 117.297 36.6647ZM127.541 19.3945C127.449 19.4868 127.357 19.4868 127.264 19.5792C127.818 20.6874 128.464 21.7957 129.018 22.9039C129.11 22.8116 129.202 22.8116 129.295 22.7192C128.741 21.611 128.095 20.5027 127.541 19.3945ZM72.5378 95.2173C72.7224 95.125 72.8147 95.0326 72.9993 94.8479C72.0764 93.7396 71.1535 92.539 70.2307 91.4308C70.0461 91.5231 69.9538 91.6155 69.7692 91.8002C70.6921 92.9085 71.615 94.0167 72.5378 95.2173ZM123.48 32.6935C123.388 32.5088 123.296 32.3241 123.111 32.2317C122.373 32.7858 121.635 33.2476 120.989 33.8017C120.804 33.8941 120.989 34.4482 121.081 34.91C121.542 34.6329 121.727 34.5406 121.819 34.4482C122.373 33.8941 122.834 33.34 123.48 32.6935ZM84.8121 65.4792C83.0586 65.3869 82.5972 65.8487 83.0586 67.234C83.7046 66.5875 84.2583 66.0334 84.8121 65.4792ZM72.1687 98.9115C72.9993 96.972 72.7224 96.4179 71.0612 96.2332C71.4304 97.0644 71.7073 97.8032 72.1687 98.9115ZM120.435 35.3717C120.435 35.187 120.343 35.0023 120.343 34.91C119.974 35.0023 119.42 35.0023 119.143 35.2794C118.866 35.5565 118.774 36.1106 118.589 36.5724C118.682 36.6647 118.866 36.6647 118.958 36.7571C119.42 36.2953 119.974 35.8335 120.435 35.3717ZM72.3533 102.236C72.8147 100.297 71.3381 100.204 70.8767 99.4656C70.7844 99.558 70.6921 99.6503 70.5075 99.7427C71.0612 100.389 71.615 101.22 72.3533 102.236Z" fill="#96613E"/>
<path d="M56.2031 59.1991C57.6797 61.1385 59.1563 62.9856 60.5406 64.9251C60.8174 65.2945 60.6329 66.1257 60.4483 66.6798C60.2637 67.2339 59.8946 67.6957 59.5254 68.1575C58.9717 68.8963 59.1563 69.3581 59.71 70.0046C61.002 71.7593 62.1095 73.6064 63.4015 75.4535C63.8629 76.0999 64.5089 76.4694 65.0627 77.0235C65.1549 76.9311 65.2472 76.8388 65.3395 76.7464C65.3395 76.8388 65.4318 77.0235 65.4318 77.0235C62.9401 79.7018 63.4015 83.4883 62.0172 86.536C61.4634 87.8289 60.9097 89.2142 60.356 90.5072C60.0791 91.246 59.71 92.0772 59.3408 93.0008C59.064 93.0931 58.418 93.1855 57.9565 93.5549C56.9414 94.2937 56.5722 95.3096 57.0337 96.6026C57.5874 98.1726 57.8642 99.835 58.0488 101.497C56.0185 100.389 56.5722 98.0803 55.2802 96.1408C55.0033 99.0038 56.8491 101.313 56.2954 103.714C56.1108 103.806 55.9262 103.806 55.7416 103.899C55.3725 102.606 54.911 101.313 54.6342 100.02C54.4496 99.4656 54.5419 98.9114 54.3573 98.4497C54.1727 98.0803 53.8036 97.8032 53.4344 97.5261C53.3422 97.8955 53.0653 98.3573 53.0653 98.7267C53.2499 99.7426 53.5267 100.851 53.7113 101.867C53.8036 102.606 53.8036 103.344 53.8036 104.083C53.619 104.083 53.5267 104.176 53.3422 104.176C53.1576 103.622 52.8807 103.067 52.6961 102.513C51.4964 98.8191 50.2044 95.0326 49.0046 91.3384C48.9124 91.0613 48.7278 90.7843 48.7278 90.5072C48.7278 90.1378 48.9124 89.7684 49.0969 89.399C49.3738 89.676 49.8352 89.8607 49.9275 90.1378C50.8504 91.9849 51.681 93.7396 52.5116 95.5867C52.6961 95.5867 52.7884 95.5867 52.973 95.5867C52.973 95.1249 53.1576 94.6631 53.0653 94.2937C52.5116 92.8161 51.7733 91.4308 51.2195 90.0454C51.035 89.5837 50.7581 89.0295 50.9427 88.5678C51.035 88.2907 51.7733 88.3831 52.2347 88.1984C54.4496 87.3672 54.6342 89.0295 55.0956 90.5072C55.1879 90.8766 55.2802 91.246 55.4648 91.4308C55.8339 91.8002 56.2031 92.1696 56.6645 92.539C56.9414 91.9849 57.4028 91.4308 57.4028 90.969C57.4028 90.2301 57.1259 89.399 56.7568 88.7525C55.1879 86.2589 53.5267 83.7653 51.9578 81.2718C51.7733 80.9024 51.9578 80.2559 51.9578 79.7941C52.4193 79.9788 53.0653 79.9788 53.2499 80.3482C54.8188 83.0265 56.3876 85.7048 57.8642 88.3831C58.0488 88.7525 57.9565 89.2142 58.2334 89.5837C59.4331 88.7525 59.8023 88.106 59.2485 87.0901C58.0488 85.1507 57.0337 83.1189 55.7416 81.2718C54.4496 79.517 52.8807 77.947 51.4041 76.1923C51.1273 75.9152 51.035 75.4535 50.8504 74.9917C51.3118 74.9917 51.9578 74.7146 52.2347 74.9917C53.0653 75.6382 53.8036 76.2847 54.3573 77.1158C56.2031 79.9788 57.9565 82.8418 59.71 85.7048C59.8023 85.7971 59.9868 85.8895 60.0791 85.8895C61.3712 84.2271 61.1866 83.4883 59.9869 82.0106C57.5874 78.9629 55.3725 75.8229 53.0653 72.7752C52.6039 72.1287 52.4193 71.4822 53.3422 70.9281C53.9882 71.5746 54.5419 72.1287 55.0033 72.4981C56.3876 70.374 57.5874 68.2498 59.064 66.3104C59.6177 65.4792 59.5254 65.2021 58.8794 64.5557C57.772 63.4474 56.8491 62.2468 56.0185 60.9538C55.6493 60.4921 55.8339 59.6609 55.7416 59.0144C55.8339 59.2915 56.0185 59.2915 56.2031 59.1991ZM61.002 82.7494C61.1866 82.6571 61.4635 82.6571 61.648 82.5647C61.648 81.6412 61.9249 80.6253 61.5557 79.9788C60.5406 78.0394 59.2486 76.2846 58.0488 74.5299C57.8642 74.2529 57.3105 74.1605 56.8491 73.9758C56.7568 74.4376 56.4799 75.084 56.6645 75.3611C58.0488 77.8547 59.5254 80.3482 61.002 82.7494ZM58.5103 71.2052C58.2334 71.2975 57.9565 71.3899 57.8642 71.4822C57.772 71.6669 57.772 72.0364 57.9565 72.2211C59.2486 74.0681 60.4483 76.0076 61.8326 77.8547C62.0172 78.1317 62.5709 78.1317 62.94 78.2241C62.94 77.8547 63.0323 77.3929 62.94 77.1158C62.1095 75.8229 61.2789 74.6223 60.356 73.4217C59.71 72.6828 59.1563 71.944 58.5103 71.2052Z" fill="#96613E"/>
<path d="M18.7344 62.3392C19.0112 61.8774 19.2881 61.4157 19.6572 61.0463C19.9341 60.8615 20.3955 60.8615 20.7647 60.7692C20.7647 61.1386 20.857 61.508 20.7647 61.7851C20.3032 63.078 19.8418 64.371 19.3804 65.7563C19.2881 66.0334 19.3804 66.4028 19.4727 66.6799C19.5649 66.7722 19.7495 66.7722 19.8418 66.8646C20.1187 66.2181 20.3955 65.4793 20.857 64.9251C21.1338 64.5557 21.7798 64.4634 22.2413 64.1863C22.2413 64.6481 22.3336 65.1098 22.2413 65.5716C22.0567 66.8646 21.7798 68.0652 21.503 69.3581C21.4107 69.7276 21.3184 70.2817 21.0415 70.4664C20.7647 70.6511 20.211 70.4664 19.8418 70.374C18.3652 69.8199 17.6269 68.527 16.7963 67.234C15.8734 65.8487 14.5814 64.5557 13.3817 63.4475C12.828 62.8933 11.2591 63.5398 10.7054 64.371C10.5208 64.6481 10.1516 64.8328 9.87477 65.0175C9.69019 64.6481 9.41333 64.2787 9.41333 64.0016C10.1516 60.0304 10.4285 55.9668 12.3665 52.365C13.0125 51.1643 13.474 49.4096 15.5966 49.779C15.8734 49.8714 16.4272 49.0402 16.704 48.5784C17.6269 47.1008 19.8418 44.8843 21.3184 44.4225C20.9493 45.069 20.6724 45.5307 20.3955 45.9925C19.5649 47.2855 18.7344 48.4861 17.9038 49.6867C17.6269 50.1485 17.0732 50.7949 16.7963 50.7026C14.8583 50.4255 14.3046 52.0879 13.5663 53.1038C12.6434 54.3044 12.2742 55.8744 11.7205 57.3521C11.3514 58.4603 11.0745 59.6609 10.7976 60.7692C10.8899 60.7692 11.0745 60.8615 11.1668 60.8615C11.8128 59.4762 12.3665 58.0909 13.0125 56.798C13.6586 55.5974 13.9354 53.8426 16.058 53.7503C15.9657 54.212 15.9657 54.4891 15.7812 54.7662C14.8583 56.5209 13.9354 58.2756 13.1048 60.0304C13.0125 60.2151 13.2894 60.6768 13.3817 60.9539C13.6586 60.7692 14.12 60.5845 14.2123 60.3074C14.8583 59.1068 15.3197 57.7215 16.058 56.5209C16.2426 56.2438 16.8886 56.1515 17.35 56.0591C17.35 56.5209 17.4423 56.9827 17.2578 57.3521C16.704 58.7374 15.9657 60.0304 15.5043 61.508C15.3197 61.9698 15.8734 62.6163 16.058 63.1704C16.4272 62.7086 16.8886 62.3392 17.0732 61.8774C17.6269 60.6768 17.9961 59.4762 18.4575 58.2756C18.5498 57.9986 19.1958 57.9986 19.6572 57.9062C19.7495 58.2756 19.9341 58.7374 19.7495 59.0145C19.3804 60.1227 18.8266 61.1386 18.3652 62.1545C18.4575 62.1545 18.5498 62.2469 18.7344 62.3392Z" fill="#96613E"/>
<path d="M117.943 13.6685C118.312 13.2991 118.682 12.9296 119.051 12.5602C118.128 11.5443 117.297 10.6208 116.374 9.69725C115.728 9.05077 115.544 8.31193 116.282 7.85016C116.651 7.66545 117.574 8.03487 117.943 8.40429C118.774 9.42018 119.328 10.6208 120.066 11.729C121.173 11.1749 121.542 10.7131 120.62 9.7896C119.974 9.14312 119.512 8.49664 119.051 7.75781C118.866 7.48074 118.958 7.01897 118.958 6.5572C119.328 6.5572 119.881 6.37249 120.158 6.5572C120.804 7.01897 121.358 7.66545 121.912 8.21958C122.281 8.589 122.65 8.86606 123.019 9.23548C123.111 9.05077 123.296 8.95841 123.388 8.7737C123.111 8.49664 122.742 8.21958 122.558 7.94252C122.373 7.5731 122.096 6.83426 122.281 6.64956C122.65 6.37249 123.296 6.18778 123.757 6.18778C124.126 6.28014 124.588 6.74191 124.772 7.11133C125.326 8.03487 125.88 7.94252 126.434 7.01897C126.341 6.83426 126.157 6.74191 126.065 6.5572C125.788 6.09543 125.603 5.54131 125.326 5.07953C125.972 4.98718 126.618 4.61776 127.172 4.80247C128.279 5.17189 129.295 5.91072 130.494 6.5572C128.556 7.66545 126.434 8.589 124.588 9.88196C122.65 11.1749 120.804 12.7449 119.051 14.2226C117.205 15.7926 115.544 17.455 113.79 19.1174C113.606 18.9327 113.421 18.748 113.237 18.6556C114.344 17.2703 115.359 15.7926 116.559 14.315C115.728 13.2991 114.713 12.1908 113.883 10.9902C113.606 10.5284 113.606 9.97431 113.421 9.42018C114.067 9.51254 114.898 9.32783 115.267 9.69725C116.097 10.6208 116.743 11.729 117.482 12.7449C117.574 13.2067 117.759 13.3914 117.943 13.6685Z" fill="#96613E"/>
<path d="M50.6657 50.3331C49.3737 49.3172 47.9894 48.3013 46.4205 47.1007C47.1588 49.1325 48.4508 50.2408 50.6657 51.1643C49.0968 52.5496 47.4356 53.3808 45.313 53.2885C44.1133 53.1961 43.0058 53.1961 41.8061 53.0114C41.3447 52.919 40.8832 52.5496 40.6064 52.1802C40.0526 51.349 39.7758 50.4255 39.3143 49.5943C38.7606 48.486 38.1146 47.5625 36.8226 47.1007C36.3611 47.0084 36.0843 46.0848 35.8997 45.5307C35.8074 45.2536 36.1766 44.6072 36.4534 44.5148C36.638 44.4225 37.284 44.6995 37.4686 44.9766C38.3915 46.1772 39.2221 47.3778 40.1449 48.5784C40.6064 49.2249 40.8832 50.1484 41.437 50.7025C41.8984 51.072 42.8213 51.072 43.4673 51.2567C43.2827 50.7949 43.1904 50.1484 42.8213 49.779C41.8061 48.5784 40.7909 47.4701 39.7758 46.2695C39.4989 45.9001 39.4989 45.2536 39.3143 44.6995C39.7758 44.8842 40.5141 44.7919 40.7909 45.1613C42.1753 46.8237 43.4673 48.5784 44.7593 50.3331C44.9439 50.6102 45.0362 50.9796 45.2207 51.072C45.5899 51.2567 45.959 51.2567 46.4205 51.349C46.4205 50.9796 46.605 50.5178 46.4205 50.3331C45.4053 49.0402 44.2056 47.8396 43.1904 46.5466C42.9135 46.1772 42.9135 45.5307 42.729 44.9766C43.7441 44.6995 45.2207 43.9607 45.7745 44.3301C47.7125 45.8078 49.2814 47.7472 50.9426 49.5019C51.0348 49.5943 50.9426 49.8714 50.9426 50.0561C50.8503 50.1484 50.758 50.2408 50.6657 50.3331Z" fill="#96613E"/>
<path d="M42.3599 94.2938C41.7138 93.0932 41.1601 91.7079 40.3295 90.5996C39.2221 89.0296 38.1146 87.1825 36.638 86.0742C33.5003 83.673 31.1008 80.9024 29.6242 77.2082C28.5167 74.6223 27.317 72.0364 24.8252 70.374C24.1792 69.9123 23.4409 69.7275 22.7949 69.3581C23.5332 68.1575 24.8252 67.8805 25.8404 68.804C28.5167 71.2052 30.8239 73.7911 31.7468 77.393C32.0237 78.4088 32.9465 79.24 33.5003 80.2559C34.6077 82.2877 36.5457 83.3036 38.2992 84.6889C39.9604 86.0742 41.437 87.6443 41.9907 89.7684C42.2676 90.7843 42.6367 91.7079 42.8213 92.7238C42.9136 93.1855 42.9136 93.7397 42.9136 94.2014C42.6367 94.2014 42.5444 94.2938 42.3599 94.2938Z" fill="#96613E"/>
<path d="M41.8985 79.1477C41.437 79.0553 41.0679 79.1477 40.8833 78.9629C39.0376 77.0235 37.0995 75.1764 35.4384 73.0523C34.5155 71.944 33.9618 70.5587 33.408 69.1734C33.2235 68.6193 33.5003 67.8804 33.5926 67.3263C33.6849 66.8645 33.9618 66.4028 34.1463 65.941C34.3309 65.5716 34.4232 65.2945 34.6078 65.0175C34.9769 65.2022 35.4384 65.3869 35.6229 65.6639C36.2689 66.7722 36.6381 67.9728 37.2841 68.9887C39.3144 71.944 41.3448 74.807 43.4674 77.7623C42.2676 77.67 42.1753 77.7623 38.5761 73.4217C37.0995 71.667 36.0844 69.6352 34.7923 67.6957C34.4232 68.7116 34.4232 68.7116 37.4687 73.6988C38.7607 75.5458 40.3296 77.2082 41.8985 79.1477Z" fill="#96613E"/>
<path d="M36.1767 51.7185C35.1616 50.2408 34.4233 48.8555 33.3158 47.7473C32.5775 46.9161 32.5775 46.2696 33.2235 45.6231C33.4081 45.4384 34.331 45.9002 34.7924 46.1772C35.1616 46.3619 35.3461 46.8237 35.5307 47.2855C36.3613 48.8555 37.2842 50.5179 38.1148 52.1803C38.2993 52.642 38.207 53.2885 38.207 53.8426C37.7456 53.6579 37.2842 53.5656 36.915 53.3809C35.4384 52.5497 34.0541 53.0114 32.7621 53.5656C31.3778 54.1197 30.0858 55.0432 28.7014 55.7821C28.4246 55.8744 28.0554 55.8744 27.7786 55.8744C27.8709 55.505 27.7786 55.0432 27.9631 54.8585C28.9783 54.1197 29.9935 53.4732 31.1009 52.7344C32.5775 51.8108 32.6698 51.5338 31.6546 50.1485C31.1932 49.5943 30.824 48.9479 30.4549 48.3014C30.2703 48.0243 30.5472 47.5625 30.5472 47.1008C31.0086 47.1931 31.5624 47.1931 31.7469 47.4702C32.4852 48.4861 33.1312 49.5943 33.5927 50.7026C34.1464 51.9032 34.7001 52.0879 36.1767 51.7185Z" fill="#96613E"/>
<path d="M41.7137 83.8578C40.0526 83.4884 38.7606 82.2878 37.7454 81.0872C36.2688 79.3324 34.9768 77.393 33.6847 75.4535C32.9464 74.4376 32.1159 73.3294 31.4698 72.2211C31.2853 71.8517 31.4698 71.2052 31.5621 70.6511C31.9313 70.9282 32.3927 71.1129 32.6696 71.4823C34.7922 74.4377 36.9148 77.393 39.0374 80.256C39.5911 80.9948 40.4217 81.5489 41.0677 82.1954C41.4369 82.5648 41.7137 83.0266 41.9906 83.4884C41.9906 83.6731 41.8983 83.7654 41.7137 83.8578Z" fill="#96613E"/>
<path d="M47.528 77.3005C47.1589 77.2082 46.6051 77.2082 46.3283 76.9311C45.4054 75.8229 44.4825 74.7146 43.7442 73.514C41.6216 69.8198 39.0376 66.4951 35.8075 63.6321C35.6229 63.4474 35.4384 62.9856 35.5307 62.8933C35.7152 62.7085 36.0844 62.4315 36.3612 62.5238C36.7304 62.6162 37.0995 62.8933 37.2841 63.1703C39.1299 65.3868 40.9756 67.6033 42.7291 69.9122C44.298 71.944 45.7746 74.1605 47.2511 76.2846C47.3434 76.4693 47.4357 76.6541 47.6203 76.9311C47.6203 77.0235 47.6203 77.1158 47.528 77.3005Z" fill="#96613E"/>
<path d="M49.0046 73.7911C48.5432 73.3293 47.8972 72.8676 47.528 72.3134C46.0514 70.1893 44.6671 68.0651 43.0982 66.0333C42.1754 64.8327 41.0679 63.7245 40.0527 62.5239C39.8682 62.2468 39.7759 61.8774 39.6836 61.508C40.0527 61.4156 40.5142 61.2309 40.8833 61.3233C41.1602 61.3233 41.5293 61.6003 41.7139 61.8774C43.3751 64.0939 45.0363 66.4028 46.6051 68.7116C47.3434 69.8199 48.0817 71.0205 48.82 72.1287C49.0969 72.4981 49.2815 72.8676 49.5583 73.237C49.2815 73.4217 49.1892 73.6064 49.0046 73.7911Z" fill="#96613E"/>
<path d="M43.8365 59.3839C44.4825 60.0304 45.2208 60.5845 45.7746 61.231C47.7126 63.8169 49.6506 66.4028 51.4964 68.9888C51.6809 69.2658 51.6809 69.7276 51.7732 70.097C51.4041 70.0047 50.7581 70.0047 50.5735 69.7276C49.1892 68.1576 47.8972 66.5875 46.6051 64.9252C45.4977 63.5399 44.298 62.1545 43.1905 60.7692C43.0059 60.4922 42.9136 60.0304 43.0059 59.7533C43.0059 59.5686 43.4674 59.4763 43.8365 59.3839Z" fill="#96613E"/>
<path d="M52.696 68.3423C52.8806 65.8487 51.1271 64.6481 50.0196 63.2628C48.6353 61.6004 47.1587 59.938 45.7744 58.2756C45.4976 57.9986 45.7744 57.2597 45.7744 56.798C46.1436 57.075 46.6973 57.2597 46.9742 57.5368C48.4508 59.1992 49.9274 60.7692 51.2194 62.4316C52.3268 63.8169 53.1574 65.2946 54.0803 66.7722C54.2649 67.0493 54.3572 67.7881 54.2649 67.9728C53.8034 68.2499 53.2497 68.2499 52.696 68.3423Z" fill="#96613E"/>
<path d="M48.3584 55.3203C49.0044 55.6897 49.4659 55.9668 49.7427 56.2439C51.1271 57.7215 52.5114 59.2915 53.8957 60.8616C54.8186 61.8775 55.7414 62.801 56.572 63.9093C56.8489 64.1863 56.8489 64.7405 56.9412 65.1099C56.4797 65.0175 55.8337 65.0175 55.5569 64.7405C53.4342 62.6163 51.4962 60.3074 49.3736 58.1833C48.9122 57.7215 48.3584 57.4445 47.897 57.075C47.5278 56.798 47.251 56.3362 46.8818 56.0591C47.5278 55.6897 47.9893 55.505 48.3584 55.3203Z" fill="#96613E"/>
<path d="M51.5885 104.545C51.4039 104.637 51.2193 104.915 51.0348 104.915C50.8502 104.822 50.4811 104.637 50.4811 104.453C49.9273 102.236 49.4659 99.9274 48.9122 97.7109C48.4507 96.1409 47.897 94.5709 47.4356 93.0008C47.3433 92.6314 47.6201 92.1697 47.7124 91.7079C47.9893 91.9849 48.543 92.262 48.6353 92.6314C49.6505 96.2332 50.5733 99.9274 51.4962 103.622C51.5885 103.806 51.5885 104.083 51.5885 104.545Z" fill="#96613E"/>
<path d="M17.7192 92.7237C16.2426 92.3543 15.8734 91.246 15.5966 90.1378C15.0428 87.1824 14.3968 84.1348 15.1351 81.0871C15.3197 80.5329 15.5966 79.9788 16.2426 79.4247C15.7811 84.0424 15.9657 88.4754 17.7192 92.7237Z" fill="#96613E"/>
<path d="M109.361 22.6268C105.485 25.1204 101.516 27.6139 97.6401 30.1075C97.5479 30.0151 97.5479 30.0151 97.4556 29.9228C98.563 28.9992 99.5782 27.891 100.686 27.0598C102.993 25.3974 105.392 23.8274 107.884 22.2574C108.253 22.0727 108.899 22.2574 109.361 22.2574C109.361 22.3497 109.361 22.5344 109.361 22.6268Z" fill="#96613E"/>
<path d="M20.2108 83.396C20.7646 87.0902 21.4106 90.5996 21.9643 94.2014C21.872 94.2938 21.6874 94.2938 21.5951 94.3862C21.0414 93.1855 20.3954 92.0773 20.1185 90.8767C19.6571 89.122 19.4725 87.2749 19.288 85.4278C19.0111 84.3195 19.1957 84.0425 20.2108 83.396Z" fill="#96613E"/>
<path d="M23.6255 86.2589C24.4561 89.676 25.1944 93.0008 25.9327 96.3255C25.8404 96.4179 25.7481 96.5102 25.7481 96.6026C25.2866 95.9561 24.5483 95.402 24.2715 94.6632C22.518 89.676 22.3334 87.6442 23.6255 86.2589Z" fill="#96613E"/>
<path d="M107.976 11.9138C108.53 12.3756 109.084 12.8374 109.453 13.2991C110.191 14.038 110.929 14.8692 111.575 15.7003C111.76 15.9774 111.76 16.4392 111.668 16.7162C111.668 16.8086 110.929 16.9933 110.837 16.9009C109.361 15.608 107.884 14.315 106.407 13.0221C106.315 12.9297 106.315 12.3756 106.407 12.3756C106.869 12.0985 107.33 12.0062 107.976 11.9138Z" fill="#96613E"/>
<path d="M29.532 97.8032C27.8708 97.4338 27.9631 95.9561 27.5939 95.0326C27.0402 93.8319 26.9479 92.4466 26.7633 91.0613C26.6711 90.6919 27.0402 90.2301 27.2248 89.8607C27.5939 90.1378 28.1477 90.4148 28.2399 90.7843C28.5168 91.6154 28.6091 92.539 28.7937 93.4625C28.9782 94.4784 29.2551 95.4943 29.4397 96.5102C29.532 96.8796 29.4397 97.2491 29.532 97.8032Z" fill="#96613E"/>
<path d="M101.331 22.1651C100.962 21.7033 100.593 21.1492 100.132 20.6875C99.1165 19.6716 98.1014 18.6557 97.0862 17.5474C96.8093 17.2703 96.717 16.8086 96.6248 16.5315C97.0862 16.4392 97.6399 16.1621 97.8245 16.3468C98.8397 17.178 99.8548 18.0092 100.593 19.0251C101.239 19.8563 101.424 20.9645 101.885 21.9804C101.793 21.9804 101.516 22.0728 101.331 22.1651Z" fill="#96613E"/>
<path d="M34.3308 99.4657C33.6848 99.2809 33.1311 99.2809 32.9465 99.0962C31.7468 97.6186 31.2854 95.8638 31.3776 93.9244C31.3776 93.555 31.8391 93.2779 32.1159 93.0009C32.3928 93.2779 32.6697 93.555 32.762 93.9244C33.2234 95.4021 33.6848 96.9721 34.054 98.4498C34.1463 98.6345 34.1463 98.8192 34.3308 99.4657Z" fill="#96613E"/>
<path d="M102.624 14.5921C103.546 13.2991 104.285 13.3915 105.3 14.8691C105.854 15.7927 106.592 16.7162 107.146 17.6398C107.33 17.9168 107.238 18.1939 107.238 18.5633C106.961 18.5633 106.5 18.748 106.315 18.6557C105.854 18.3786 105.484 17.9168 105.115 17.4551C104.285 16.5315 103.454 15.608 102.624 14.5921Z" fill="#96613E"/>
<path d="M46.9742 80.1636C47.1588 80.4406 47.3434 80.533 47.4357 80.7177C48.0817 81.7336 48.82 82.7495 49.466 83.8577C49.6506 84.2272 49.466 84.6889 49.466 85.1507C49.0968 85.0583 48.5431 85.0583 48.3585 84.7813C47.5279 83.7654 46.7896 82.7495 46.1436 81.6412C45.9591 81.3642 46.2359 80.7177 46.3282 80.2559C46.4205 80.3483 46.7896 80.2559 46.9742 80.1636Z" fill="#96613E"/>
<path d="M84.5351 38.1424C82.3202 38.1424 80.2899 38.0501 78.2596 37.9577C77.8904 37.9577 77.5213 37.5883 77.0598 37.4036C77.3367 37.0342 77.6135 36.3877 77.8904 36.3877C80.1976 36.48 82.5048 36.48 84.5351 38.1424Z" fill="#96613E"/>
<path d="M44.0211 81.9183C44.8517 82.9342 45.59 83.9501 46.4206 85.0584C46.7897 85.6125 47.1589 86.1666 47.528 86.7208C47.7126 86.9978 47.7126 87.2749 47.8049 87.6443C47.4357 87.6443 46.9743 87.7366 46.7897 87.5519C45.8668 86.536 45.0363 85.4278 44.2057 84.3195C43.8365 83.8578 43.5597 83.4884 43.2828 83.0266C43.1905 82.8419 43.1905 82.4725 43.3751 82.2878C43.3751 82.0107 43.7442 82.0107 44.0211 81.9183Z" fill="#96613E"/>
<path d="M94.2253 18.1938C94.5945 18.0091 94.8714 17.9167 94.9636 17.9167C96.348 19.2097 97.7323 20.4103 99.1166 21.7956C99.2089 21.888 99.1166 22.6268 99.0243 22.6268C98.6551 22.7192 98.1014 22.7192 97.8245 22.4421C96.6248 21.1491 95.5174 19.7638 94.2253 18.1938Z" fill="#96613E"/>
<path d="M104.285 20.6874C103.915 20.5951 103.546 20.5027 103.362 20.318C102.254 19.1174 101.239 17.9168 100.224 16.7162C100.132 16.5315 100.132 16.0697 100.224 15.9774C100.409 15.7927 100.87 15.7003 101.147 15.7003C102.347 15.885 104.377 19.1174 104.285 20.6874Z" fill="#96613E"/>
<path d="M114.252 15.1462C114.16 15.1462 113.883 15.3309 113.698 15.2386C113.421 15.2386 113.144 15.0538 112.96 14.8691C112.129 14.038 111.299 13.1144 110.56 12.1909C110.283 11.8214 110.376 11.175 110.283 10.7132C110.745 10.7132 111.391 10.5285 111.575 10.7132C112.498 11.9138 113.421 13.2991 114.252 14.5921C114.344 14.6844 114.344 14.7768 114.252 15.1462Z" fill="#96613E"/>
<path d="M93.5794 26.321C92.4719 25.3051 91.2722 24.3816 90.257 23.2733C90.0724 23.0886 90.4416 22.3498 90.5339 21.7957C91.1799 21.9804 92.0105 21.888 92.2873 22.3498C93.0256 23.458 93.4871 24.751 94.0408 25.9516C93.8562 26.1363 93.7639 26.2287 93.5794 26.321Z" fill="#96613E"/>
<path d="M96.625 24.9357C96.2558 24.9357 96.0712 25.0281 95.9789 24.9357C94.5023 23.3657 93.118 21.7033 91.7337 20.041C91.6414 19.9486 91.7337 19.3945 91.9183 19.3021C92.1029 19.2098 92.472 19.2098 92.6566 19.3945C93.3026 19.9486 93.8563 20.5027 94.4101 21.1492C95.0561 21.9804 95.7021 22.8116 96.2558 23.7351C96.3481 24.1045 96.4404 24.474 96.625 24.9357Z" fill="#96613E"/>
<path d="M18.7344 52.7343C18.5498 51.9031 18.273 51.4413 18.3653 51.349C19.3804 50.056 20.4879 48.8554 21.5953 47.7472C21.6876 47.6548 22.149 47.7472 22.4259 47.9319C22.5182 47.9319 22.4259 48.3936 22.3336 48.5784C21.5953 49.5943 20.7647 50.6102 19.9341 51.626C19.6573 51.9955 19.2881 52.2725 18.7344 52.7343Z" fill="#96613E"/>
<path d="M29.4395 62.2468C30.7316 63.7245 31.7467 64.8327 32.7619 66.0334C32.8542 66.1257 32.7619 66.6798 32.5773 66.7722C32.3927 66.8645 31.9313 66.8645 31.839 66.6798C30.8238 65.8486 29.901 64.9251 28.9781 64.0016C28.7935 63.8169 28.7935 63.1704 28.8858 62.801C28.9781 62.7086 29.255 62.4315 29.4395 62.2468Z" fill="#96613E"/>
<path d="M13.8431 75.5459C13.474 74.9917 12.828 74.4376 12.7357 73.8835C12.6434 72.9599 12.828 71.9441 13.1048 71.0205C13.1971 70.7434 13.7508 70.5587 14.12 70.374C14.3046 70.7434 14.6737 71.0205 14.6737 71.3899C14.5814 72.0364 14.3046 72.6829 14.2123 73.3294C14.12 73.8835 14.3046 74.53 14.3968 75.0841C14.2123 75.2688 14.0277 75.3612 13.8431 75.5459Z" fill="#96613E"/>
<path d="M15.4119 74.53C15.4119 74.3453 15.4119 74.2529 15.5042 74.0682C15.8733 73.6065 16.2425 73.237 16.6116 72.7753C16.7039 73.3294 16.8885 73.8835 16.8885 74.4376C16.8885 75.3612 16.7039 76.2847 16.5193 77.1159C16.427 77.393 16.2425 77.67 16.1502 77.9471C15.8733 77.7624 15.4119 77.5777 15.3196 77.3006C15.135 76.3771 15.135 75.3612 15.135 74.4376C15.3196 74.53 15.3196 74.53 15.4119 74.53Z" fill="#96613E"/>
<path d="M61.2787 99.835C60.8173 99.835 59.9867 99.9274 59.8021 99.6503C59.2484 98.7268 58.787 97.7108 58.4178 96.695C58.3255 96.6026 59.0638 96.1408 59.433 95.8638C60.2636 96.8797 61.0942 97.9879 61.9247 99.0038C61.7402 99.3732 61.4633 99.6503 61.2787 99.835Z" fill="#96613E"/>
<path d="M31.4699 51.5337C31.1008 51.5337 30.6394 51.7185 30.4548 51.5337C29.5319 50.6102 28.609 49.6867 27.7784 48.7631C27.6862 48.5784 27.6862 48.209 27.7784 48.0243C27.963 47.8396 28.4245 47.6549 28.5167 47.7472C29.5319 48.7631 30.5471 49.8714 31.4699 50.9796C31.4699 51.072 31.4699 51.2567 31.4699 51.5337Z" fill="#96613E"/>
<path d="M62.9399 69.1735C63.5859 70.4664 64.3242 71.7594 64.9702 73.0523C65.0625 73.1447 64.7856 73.5141 64.601 73.5141C64.3242 73.5141 63.955 73.5141 63.8627 73.3294C63.1244 72.3135 62.4784 71.2976 61.9247 70.2817C61.8324 70.097 61.9247 69.6352 62.017 69.3582C62.017 69.2658 62.3861 69.2658 62.9399 69.1735Z" fill="#96613E"/>
<path d="M36.5459 96.6027C36.915 97.988 37.2842 99.3733 37.6533 100.943C35.7153 100.482 34.977 98.0803 36.5459 96.6027Z" fill="#96613E"/>
<path d="M33.7771 60.1227C34.8845 58.8297 36.9149 59.1068 37.3763 60.0303C37.7455 60.6768 37.6532 61.3233 36.8226 61.1386C35.8074 60.9539 34.7923 60.4921 33.7771 60.1227Z" fill="#96613E"/>
<path d="M27.5938 66.7721C26.671 66.1257 25.6558 65.4792 24.8252 64.8327C24.5483 64.648 24.6406 64.0015 24.5483 63.6321C24.9175 63.6321 25.4712 63.4474 25.6558 63.7244C26.6709 64.4633 27.5938 65.2945 28.0553 66.4951C27.963 66.4951 27.7784 66.6798 27.5938 66.7721Z" fill="#96613E"/>
<path d="M44.1133 86.0742C44.8516 87.0901 45.5899 88.1984 46.5127 89.4913C44.667 89.7684 44.1133 88.6601 43.5595 87.829C43.2827 87.4595 43.4673 86.8131 43.4673 86.2589C43.6518 86.1666 43.8364 86.1666 44.1133 86.0742Z" fill="#96613E"/>
<path d="M62.8477 97.0644C62.2017 96.4179 61.648 95.7714 61.0942 95.125C60.9097 94.9403 60.9097 94.2938 61.0942 94.1091C61.2788 93.9244 61.8325 93.9244 62.1094 94.0167C63.3091 94.4785 63.586 95.5867 62.8477 97.0644Z" fill="#96613E"/>
<path d="M22.795 51.6261C22.149 52.642 21.503 53.6579 20.857 54.6738C20.7647 54.8585 20.211 54.7662 19.9341 54.7662C19.8418 54.7662 19.6572 54.3044 19.7495 54.1197C20.3955 52.9191 21.1338 51.9032 22.3336 51.2567C22.5181 51.4414 22.7027 51.5338 22.795 51.6261Z" fill="#96613E"/>
<path d="M33.2234 63.5398C32.4851 63.2627 31.6546 62.9857 31.0086 62.5239C30.7317 62.3392 30.824 61.6003 30.7317 61.1386C31.1931 61.1386 31.7469 61.0462 32.0237 61.2309C32.6697 61.6927 33.1312 62.3392 33.5926 62.8933C33.5003 63.1704 33.3157 63.3551 33.2234 63.5398Z" fill="#96613E"/>
<path d="M94.0408 27.7987C94.6868 28.6299 95.1483 29.184 95.6097 29.8305C95.1483 30.0152 94.5945 30.477 94.3177 30.2923C93.6717 29.9229 93.2102 29.2764 92.6565 28.7222C93.0256 28.4452 93.3948 28.2605 94.0408 27.7987Z" fill="#96613E"/>
<path d="M63.3092 62.2468C62.5709 62.4315 62.0171 62.7086 61.9248 62.6163C61.2788 61.9698 60.7251 61.2309 60.1714 60.4921C60.4482 60.3074 61.002 59.8456 61.0943 59.938C61.8326 60.5845 62.3863 61.3233 63.3092 62.2468Z" fill="#96613E"/>
<path d="M95.9788 49.6867C95.4251 48.5784 94.7791 47.4702 94.2253 46.2696C94.1331 46.1772 94.3176 45.8078 94.4099 45.8078C94.5945 45.7154 94.9636 45.8078 95.0559 45.9001C95.7942 47.0084 96.6248 48.0243 96.5325 49.4096C96.348 49.502 96.1634 49.5943 95.9788 49.6867Z" fill="#96613E"/>
<path d="M23.9946 53.7502C23.9023 54.8585 23.164 55.5973 22.2411 56.2438C22.0566 56.3361 21.6874 56.2438 21.5951 56.1514C21.5028 55.9667 21.4105 55.5049 21.5028 55.4126C22.1488 54.7661 22.8871 54.1196 23.6254 53.4731C23.7177 53.4731 23.81 53.6579 23.9946 53.7502Z" fill="#96613E"/>
<path d="M25.8403 49.8713C27.6861 49.9637 28.8858 51.4414 28.7935 53.1037C27.7784 51.9955 26.7632 50.8872 25.8403 49.8713Z" fill="#96613E"/>
<path d="M25.4713 35.4641C24.6407 34.8177 23.9024 34.3559 23.1641 33.8941C22.9795 33.8018 22.9795 33.5247 22.8872 33.2476C23.1641 33.1553 23.4409 32.9706 23.6255 32.9706C24.733 33.4324 25.6558 33.8941 25.4713 35.4641Z" fill="#96613E"/>
<path d="M21.0416 77.2082C20.3033 77.3929 19.8418 77.67 19.7495 77.4853C19.2881 77.1158 19.0112 76.5617 18.6421 76.1923C19.0112 76.0076 19.4727 75.6382 19.6572 75.7305C20.0264 76.0076 20.3955 76.4694 21.0416 77.2082Z" fill="#96613E"/>
<path d="M40.791 54.8585C41.1601 55.5974 41.5293 56.0591 41.5293 56.4285C41.5293 56.7056 40.9755 56.8903 40.6987 57.1674C40.4218 56.798 40.0527 56.3362 39.9604 55.9668C39.8681 55.6897 40.3295 55.4126 40.791 54.8585Z" fill="#96613E"/>
<path d="M81.1206 53.8426C81.2129 53.2885 81.3052 52.7344 81.582 52.2726C82.5972 49.8714 83.4278 47.5625 82.0435 44.9766C81.8589 44.6995 82.1358 44.3301 82.1358 43.9607C82.5049 44.1454 83.2432 44.2378 83.3355 44.5148C83.7047 45.8078 84.0738 47.1931 84.0738 48.5784C83.9815 50.7026 82.8741 52.4573 81.7666 54.1197C81.4898 53.935 81.3052 53.935 81.1206 53.8426Z" fill="#96613E"/>
<path d="M76.9675 62.5239C77.429 60.8615 77.8904 59.1068 78.3518 57.4444C78.4441 57.1673 78.5364 56.7979 78.721 56.7055C78.9979 56.4285 79.4593 56.3361 79.8284 56.2438C79.9207 56.6132 80.1976 57.075 80.013 57.352C79.2747 59.1991 78.4441 61.0462 77.6135 62.8009C77.429 62.7086 77.2444 62.6162 76.9675 62.5239Z" fill="#96613E"/>
</g>
<defs>
<clipPath id="clip0">
<rect width="140" height="122" fill="white"/>
</clipPath>
</defs>
</svg>
